<?xml version="1.0" encoding="utf-8"?>
<!-- Generator: Adobe Illustrator 21.1.0, SVG Export Plug-In . SVG Version: 6.00 Build 0)  -->
<svg version="1.1" id="圖層_1" xmlns="http://www.w3.org/2000/svg" xmlns:xlink="http://www.w3.org/1999/xlink" x="0px" y="0px"
	 viewBox="0 0 250 250" style="enable-background:new 0 0 250 250;" xml:space="preserve">
<style type="text/css">
	.st0{fill:#B8151B;}
</style>
<path class="st0" d="M0,82.5c0.9-4.6,1.5-9.3,2.8-13.8c8.2-29.3,33.7-50.4,64-53.2c39.4-3.7,74.7,24.5,79.6,63.6
	c0.6,4.9,0.5,9.9,0.8,15.1l5-1.8c43.6-15.5,91.6,14,97.2,60c2.7,22.4-3.8,42.1-18.9,58.9c-1.1,1.3-1.4,2.2-0.6,3.7
	c3,5.8,5.9,11.6,8.8,17.4c0.4,0.7,0.6,1.4,1.1,2.4h-2.6c-20,0-40,0-60.1,0c-35.2-0.1-64.5-23.2-72.2-57.6
	c-1.4-6.2-1.2-12.7-1.8-19.1c-0.1-0.7,0-1.4,0-2.5c-1,0.4-1.8,0.6-2.6,0.9c-8.3,3.3-17.1,5-25.9,5.1c-20.7,0.1-41.3,0.1-62,0
	c-0.5,0-1.1-0.1-1.9-0.1c3.3-6.6,6.4-13,9.7-19.3c0.9-1.8,0.8-2.9-0.6-4.4C8.9,126.3,2,111.4,0.4,95.6c-0.1-0.5-0.2-0.9-0.4-1.4
	C0,90.3,0,86.4,0,82.5z M210.9,209.6c1.4-1.2,2.5-2.2,3.7-3.2c15.8-14.3,23.1-31.9,20.2-53.1c-5.7-42.1-55-64.3-90.5-40.7
	c-1.2,0.8-2.1,2-2.6,3.3c-4.1,10.1-10.4,19.1-18.5,26.3c-2.4,1.9-4,4.7-4.3,7.8c-0.4,2.8-0.9,5.6-1,8.5
	c-1.7,32.3,23.1,59.9,55.4,61.6c1,0.1,2,0.1,3,0.1c12.6,0.1,25.2,0,37.8,0c0.6,0,1.2-0.1,2-0.2C214.3,216.4,212.6,213.1,210.9,209.6
	z M34.3,147c13.1,0,25.7,0.1,38.3,0c3.8,0,7.6-0.3,11.4-0.9c32-5.2,54-37.8,47-69.6c-6.9-31.5-35.9-51-67.8-45.8
	C36.1,35.2,15,59.6,14.7,87.1c-0.3,18.9,7.6,33.9,21.5,46.2l3.4,3.1C37.8,139.9,36.2,143.2,34.3,147z"/>
<path class="st0" d="M206,139.8v14.4h-58.8v-14.4H206z"/>
<path class="st0" d="M147.1,183.4V169h58.8v14.4H147.1z"/>
<path class="st0" d="M58.9,73.6H44.5c-0.1-4.9,1.2-9.8,3.6-14.1C56,45.3,73.8,40.2,88,48.1c7.5,4.2,12.8,11.5,14.5,19.9
	c2.5,12.2-3.1,24.6-13.9,30.9c-4.5,2.6-7.2,6.1-7.7,11.4H66.3c0.2-2,0.5-4,0.8-6c1.7-7.5,6.5-13.8,13.3-17.5
	c7.3-4.2,10-12.3,6.5-19.4c-3.5-7.3-12.2-10.3-19.5-6.9c-4,1.9-7,5.6-7.9,10C59.3,71.4,59.1,72.5,58.9,73.6z"/>
<path class="st0" d="M66.5,117.8h14.4v14.4H66.5V117.8z"/>
</svg>
