<svg id="圖層_1" data-name="圖層 1" xmlns="http://www.w3.org/2000/svg" viewBox="0 0 250 250"><defs><style>.cls-1{fill:#fff;}</style></defs><title>未命名-1</title><path class="cls-1" d="M0,82.49c.91-4.61,1.5-9.31,2.78-13.82a73.39,73.39,0,0,1,64-53.2c39.38-3.68,74.7,24.52,79.55,63.63.6,4.89.54,9.87.81,15.11l5-1.8c43.57-15.52,91.61,14,97.22,60,2.74,22.41-3.76,42.12-18.9,58.91-1.15,1.27-1.37,2.18-.55,3.73,3,5.76,5.86,11.6,8.76,17.43.35.71.64,1.44,1.07,2.39h-2.65q-30,0-60.06,0c-35.23-.05-64.46-23.21-72.2-57.58-1.39-6.2-1.22-12.74-1.75-19.13-.06-.72,0-1.45,0-2.53-1,.35-1.77.62-2.55.92a71.7,71.7,0,0,1-25.95,5.05q-31,.08-62,0c-.53,0-1.07-.05-1.91-.1,3.31-6.61,6.44-13,9.73-19.34.92-1.77.79-2.85-.6-4.35A72.05,72.05,0,0,1,.42,95.57,8.91,8.91,0,0,0,0,94.2C0,90.3,0,86.39,0,82.49ZM210.91,209.57c1.35-1.18,2.53-2.17,3.67-3.21,15.75-14.26,23.06-31.85,20.17-53.07-5.74-42.14-55-64.25-90.48-40.72a7.78,7.78,0,0,0-2.61,3.3,71.46,71.46,0,0,1-18.48,26.32,12,12,0,0,0-4.35,7.79c-.36,2.82-.92,5.63-1,8.46a58.63,58.63,0,0,0,58.43,61.73c12.6.09,25.22,0,37.83,0,.59,0,1.18-.12,2-.2C214.28,216.4,212.64,213.07,210.91,209.57ZM34.34,147c13.11,0,25.72.07,38.32,0a76.44,76.44,0,0,0,11.4-.94c32-5.17,54-37.81,47-69.56C124.17,45,95.19,25.45,63.31,30.69,36.06,35.17,15,59.56,14.66,87.12,14.41,106,22.28,121,36.15,133.31l3.43,3.05C37.85,139.86,36.21,143.19,34.34,147Z"/><path class="cls-1" d="M206,139.79v14.36H147.18V139.79Z"/><path class="cls-1" d="M147.09,183.4V169h58.78V183.4Z"/><path class="cls-1" d="M58.9,73.6H44.51a27.07,27.07,0,0,1,3.64-14.11A29.29,29.29,0,0,1,102.49,68,29,29,0,0,1,88.61,98.86c-4.54,2.6-7.2,6.14-7.65,11.38H66.31a58.17,58.17,0,0,1,.84-6A26.7,26.7,0,0,1,80.41,86.73c7.32-4.19,10-12.3,6.49-19.41a14.59,14.59,0,0,0-27.4,3.14C59.27,71.45,59.11,72.49,58.9,73.6Z"/><path class="cls-1" d="M66.53,117.75H80.89v14.4H66.53Z"/></svg>