<?xml version="1.0" encoding="utf-8"?>
<!-- Generator: Adobe Illustrator 23.0.3, SVG Export Plug-In . SVG Version: 6.00 Build 0)  -->
<svg version="1.1" id="圖層_1" xmlns="http://www.w3.org/2000/svg" xmlns:xlink="http://www.w3.org/1999/xlink" x="0px" y="0px"
	 viewBox="0 0 200 200" style="enable-background:new 0 0 200 200;" xml:space="preserve" fill="#b1802d">
<g>
	<path d="M184.08,47c-3.53,14.08-7.11,27.36-10.09,40.78c-0.91,4.08-0.91,8.71-0.01,12.79c2.97,13.43,6.54,26.72,10.01,40.6
		c-56.14,0-111.85,0-168.01,0c3.37-13.51,6.94-26.79,9.87-40.22c0.94-4.3,0.97-9.14,0.03-13.43c-2.92-13.4-6.5-26.66-9.97-40.52
		C72.16,47,127.69,47,184.08,47z M130.53,106.19c3.06-0.17,5.78-0.15,8.46-0.49c7.89-0.98,14.3-7.81,14.94-15.73
		c0.69-8.68-4.32-17.14-12.18-18.44c-7.57-1.25-15.39-1.02-23.3-1.45c0,16.58,0,31.88,0,47.53c3.91,0,7.44,0,11.31,0
		C130.02,113.67,130.26,110.11,130.53,106.19z M45.15,70.99c0.9,7.98,0.69,15.47,2.8,22.24c2.29,7.34,6.54,14.13,10.37,20.91
		c1.01,1.79,3.69,3.82,5.47,3.71c2.13-0.13,4.9-1.98,6.04-3.9c3.39-5.7,5.95-11.89,9.16-17.71c4.52-8.18,3.02-16.68,2.57-25.05
		c-4.25,0-7.78,0-11.64,0c-0.41,9.46,1.46,19-6.84,26.72c-1.85-4.62-4.19-8.68-5.03-13.03c-0.84-4.36-0.18-9.01-0.18-13.89
		C53.56,70.99,50.22,70.99,45.15,70.99z M94.85,70.73c0,16.12,0,31.58,0,46.95c3.76,0,6.91,0,10.36,0c0-15.77,0-31.21,0-46.95
		C101.58,70.73,98.44,70.73,94.85,70.73z"/>
	<path d="M44.16,153.87c9.59,0,17.79-0.26,25.96,0.18c2.11,0.11,4.26,2.23,6.12,3.75c6.02,4.94,11.84,10.13,17.89,15.02
		c3.63,2.93,7.72,3.09,11.42,0.13c6.08-4.86,11.8-10.19,18.02-14.85c2.69-2.02,6.17-3.8,9.43-4.08c7.04-0.61,14.16-0.19,22.66-0.19
		c-2.87,3.99-4.9,7.18-7.29,10.07c-12.17,14.73-26.77,26.48-43.88,34.97c-2.13,1.06-5.53,1.57-7.51,0.62
		C75.91,189.26,58.51,174.62,44.16,153.87z"/>
	<path d="M142.14,34.05c-28.48,0-55.93,0-84.31,0c0-6.21-0.29-12.13,0.19-17.98c0.13-1.6,2.34-3.78,4.05-4.37
		C73.77,7.69,85.55,3.92,97.38,0.34c1.98-0.6,4.49-0.35,6.52,0.28c10.94,3.37,21.74,7.21,32.72,10.41c4.4,1.28,5.84,3.54,5.58,7.87
		C141.92,23.67,142.14,28.47,142.14,34.05z"/>
	<path d="M154.56,16.95c7.42,2.3,14.26,3.68,20.33,6.66c2.4,1.17,3.06,5.88,5.14,10.3c-9.87,0-17.47,0-25.47,0
		C154.56,28.37,154.56,23.17,154.56,16.95z"/>
	<path d="M45.44,16.96c0,6.37,0,11.53,0,17.12c-7.83,0-15.26,0-22.65,0c-2.32-8.7-2.01-9.35,5.88-11.88
		C34.03,20.49,39.42,18.84,45.44,16.96z"/>
	<path d="M110.39,154.54c-3.97,3.03-6.95,5.3-10.31,7.86c-3.24-2.4-6.32-4.67-10.63-7.86C96.88,154.54,102.91,154.54,110.39,154.54z
		"/>
	<path d="M130.63,95.56c0-5.4,0-8.93,0-14.23c3.87,1.42,7.37,2.24,10.29,4.03c0.92,0.56,1.07,4.84,0.21,5.43
		C138.29,92.73,134.83,93.77,130.63,95.56z"/>
</g>
</svg>
