<svg xmlns="http://www.w3.org/2000/svg" width="45" height="45" viewBox="0 0 45 45">
  <defs>
    <style>
      .cls-1 {
        fill: #b1802d;
        fill-rule: evenodd;
      }
    </style>
  </defs>
  <path id="形狀_3" data-name="形狀 3" class="cls-1" d="M75.03,210q6.647,0,13.293,0a4.464,4.464,0,0,1,4.589,3.631,5.86,5.86,0,0,1,.082,1.154Q93,228.005,93,241.219a4.5,4.5,0,0,1-4.787,4.788q-13.214,0-26.428,0a4.523,4.523,0,0,1-4.787-4.8q0-13.215,0-26.429a4.5,4.5,0,0,1,4.8-4.779Q68.41,210,75.03,210Zm13.445,31.469V214.515H61.54v26.956H88.475Zm-35.992,9.047h0.751q11.812,0,23.625,0a4.8,4.8,0,0,1,1,.061,2.124,2.124,0,0,1,1.62,2.478,2.051,2.051,0,0,1-1.953,1.927C77.348,255,77.172,255,77,255q-12.129,0-24.258,0a4.463,4.463,0,0,1-4.528-3.164,5.3,5.3,0,0,1-.2-1.5Q47.99,238.124,48,225.916a2.151,2.151,0,0,1,2.553-2.391,2.043,2.043,0,0,1,1.908,1.912c0.022,0.262.019,0.527,0.019,0.791q0,11.76,0,23.52v0.77Zm20.265-21.153c2.472-2.475,4.894-4.9,7.31-7.325a2.227,2.227,0,0,1,3.8.725,2.034,2.034,0,0,1-.481,2.241c-0.785.828-1.606,1.624-2.413,2.431-2.149,2.15-4.331,4.268-6.435,6.46a2.348,2.348,0,0,1-3.552.011c-1.388-1.491-2.882-2.881-4.305-4.341a2.215,2.215,0,0,1,1.1-3.757,2.14,2.14,0,0,1,2.106.672C70.826,227.424,71.763,228.373,72.748,229.365Z" transform="translate(-48 -210)"/>
</svg>
