<svg xmlns="http://www.w3.org/2000/svg" width="33" height="45" viewBox="0 0 33 45">
  <defs>
    <style>
      .cls-1 {
        fill: #b1802d;
        fill-rule: evenodd;
      }
    </style>
  </defs>
  <path id="形狀_2" data-name="形狀 2" class="cls-1" d="M619.019,255h-1.042a13.2,13.2,0,0,1-1.64-.756c-4.178-2.647-8.337-5.325-12.511-7.98A3.7,3.7,0,0,1,602,242.9q0.019-9.711.006-19.422a3.511,3.511,0,0,1,3.755-3.813h25.476a3.508,3.508,0,0,1,3.755,3.813c0,6.46-.009,12.919.008,19.379a3.769,3.769,0,0,1-1.863,3.431c-3.955,2.512-7.891,5.055-11.852,7.558C620.571,254.3,619.776,254.62,619.019,255Zm-6.708-13.819a2.193,2.193,0,0,0,2.985,2.243c0.716-.307,1.393-0.708,2.082-1.076a2.212,2.212,0,0,1,2.2-.021c0.576,0.3,1.158.6,1.726,0.916a2.152,2.152,0,0,0,2.487-.073,2.244,2.244,0,0,0,.839-2.417c-0.119-.647-0.218-1.3-0.327-1.945a2.2,2.2,0,0,1,.67-2.033c0.506-.5,1.017-1,1.517-1.506a2.228,2.228,0,0,0-1.264-3.816c-0.643-.1-1.286-0.193-1.931-0.276a2.313,2.313,0,0,1-1.916-1.386c-0.28-.594-0.575-1.18-0.86-1.77a2.19,2.19,0,0,0-4.033,0c-0.312.643-.62,1.288-0.945,1.924a2.072,2.072,0,0,1-1.534,1.17c-0.7.124-1.4,0.239-2.1,0.326a2.234,2.234,0,0,0-1.339,3.891q0.73,0.72,1.457,1.443a2.214,2.214,0,0,1,.673,2.033C612.557,239.654,612.42,240.505,612.311,241.181ZM618.542,210c4.311,0,8.622-.006,12.933,0a3.514,3.514,0,0,1,.236,7.021c-0.115.006-.231,0.006-0.347,0.006q-12.867,0-25.734,0a3.514,3.514,0,1,1-.15-7.026c3.7-.016,7.406,0,11.109,0h1.953Z" transform="translate(-602 -210)"/>
</svg>
