<svg xmlns="http://www.w3.org/2000/svg" width="45" height="45.031" viewBox="0 0 45 45.031">
  <defs>
    <style>
      .cls-1 {
        fill: #ffffff;
        fill-rule: evenodd;
      }
    </style>
  </defs>
  <path id="形狀_1" data-name="形狀 1" class="cls-1" d="M1118.04,163.774H1163v21.734a8.343,8.343,0,0,1-8.64,8.489q-9.63,0-19.26,0a8.694,8.694,0,0,1-6.14-2.408q-4.155-3.859-8.32-7.713a7.783,7.783,0,0,1-2.62-5.8c-0.03-4.633-.01-9.267-0.01-13.9C1118.01,164.051,1118.03,163.927,1118.04,163.774Zm28.35,20.2a1.668,1.668,0,0,0,1.64-1.914c-0.15-.9-0.29-1.808-0.48-2.7a0.993,0.993,0,0,1,.35-1.055c0.68-.6,1.32-1.238,1.96-1.875a1.505,1.505,0,0,0,.44-1.655,1.61,1.61,0,0,0-1.4-1.1c-0.97-.135-1.94-0.259-2.91-0.426a0.829,0.829,0,0,1-.52-0.368c-0.45-.84-0.87-1.7-1.28-2.557a1.636,1.636,0,0,0-3.03.006c-0.39.809-.81,1.6-1.19,2.418a0.818,0.818,0,0,1-.73.55c-0.9.089-1.79,0.263-2.7,0.366a1.653,1.653,0,0,0-1.5,1.119,1.58,1.58,0,0,0,.52,1.733c0.67,0.64,1.35,1.259,1.99,1.927a1.091,1.091,0,0,1,.25.755c-0.12.907-.28,1.809-0.46,2.706a1.581,1.581,0,0,0,.61,1.7,1.6,1.6,0,0,0,1.83.086c0.83-.434,1.66-0.882,2.52-1.279a1,1,0,0,1,.75-0.006c0.83,0.389,1.64.844,2.47,1.254A7.366,7.366,0,0,0,1146.39,183.97Zm-14.72,4.977c0.01-.226.03-0.33,0.03-0.433q0-2.993-.01-5.985a0.989,0.989,0,0,0-1.18-1.158c-2.15,0-4.31,0-6.46,0h-0.57C1126.26,183.937,1128.92,186.4,1131.67,188.947ZM1118,159.937a20.388,20.388,0,0,1,.32-4.946,8.329,8.329,0,0,1,7.9-6.008q14.28-.053,28.56,0a8.282,8.282,0,0,1,8.21,8.223c0.01,0.9.01,1.79,0.01,2.729h-45Z" transform="translate(-1118 -148.969)"/>
</svg>
