<svg xmlns="http://www.w3.org/2000/svg" width="69" height="40" viewBox="0 0 69 40">
  <defs>
    <style>
      .cls-1 {
        fill: #484848;
        fill-rule: evenodd;
      }
    </style>
  </defs>
  <path id="形狀_2" data-name="形狀 2" class="cls-1" d="M1001.86,1328.02c-0.07-.1-0.13-0.2-0.19-0.3-0.15-.24-0.3-0.5-0.48-0.75a41.961,41.961,0,0,0-10.923-10.83A39.188,39.188,0,0,0,967.9,1309a41.678,41.678,0,0,0-8.509.9,39.932,39.932,0,0,0-15.223,6.53A44.2,44.2,0,0,0,933.159,1328l-0.159.24v1.5l0.144,0.23c0.064,0.1.126,0.2,0.188,0.31,0.138,0.22.281,0.46,0.444,0.69a42.077,42.077,0,0,0,12.919,12.14,39.216,39.216,0,0,0,20.476,5.89h0a41.517,41.517,0,0,0,9.6-1.16,40.06,40.06,0,0,0,14.521-6.63,43.9,43.9,0,0,0,10.543-11.22l0.16-.24v-1.5Zm-6.622.98a36.146,36.146,0,0,1-16.281,12.16,33.731,33.731,0,0,1-11.533,2.11,33.114,33.114,0,0,1-14.324-3.37,36.815,36.815,0,0,1-13.333-10.91,36.613,36.613,0,0,1,17.764-12.7,35.426,35.426,0,0,1,10.778-1.53,33.065,33.065,0,0,1,20.125,7.41A39.241,39.241,0,0,1,995.238,1329Zm-15.989.01a11.751,11.751,0,1,1-11.741-11.92A11.853,11.853,0,0,1,979.249,1329.01Z" transform="translate(-933 -1309)"/>
</svg>
