<svg id="圖層_1" data-name="圖層 1" xmlns="http://www.w3.org/2000/svg" viewBox="0 0 250 250"><defs><style>.cls-1{fill:#fff;}</style></defs><title>未命名-1</title><path class="cls-1" d="M12,165.75c0-19.56.09-39.11,0-58.66-.07-10.64,4.07-18.79,12.78-25,31.29-22.4,62.46-45,93.67-67.5,4.77-3.45,8.39-3.46,13.16,0q47.28,34.11,94.55,68.21C234.11,88.48,238,96.24,238,106V226.45c0,6.37-4.29,10.83-10.65,10.84q-36.18.08-72.37,0c-6.11,0-10-4.1-10-10.27,0-14.76,0-29.52,0-44.28,0-10.89-7.05-19.31-17.26-20.91a20.39,20.39,0,0,0-24,20.16c-.13,14.68,0,29.37,0,44,0,7.6-3.68,11.27-11.32,11.27h-69c-7.58,0-11.3-3.73-11.3-11.33Q12,195.86,12,165.75ZM85.46,218v-2.87c0-11.54-.26-23.08.13-34.61a39.12,39.12,0,0,1,37.88-37.7c21.08-.81,39.56,15.81,40.43,36.89.49,12,.15,24,.19,36v2.7h54.67v-2.58q0-54.62.05-109.24a9.88,9.88,0,0,0-4.45-8.73Q170.29,66,126.32,34a2.22,2.22,0,0,0-3.11,0Q79.11,65.88,35,97.58a9.3,9.3,0,0,0-4.2,8.16q.09,55,0,109.93V218Z"/></svg>