<?xml version="1.0" encoding="utf-8"?>
<!-- Generator: Adobe Illustrator 21.1.0, SVG Export Plug-In . SVG Version: 6.00 Build 0)  -->
<svg version="1.1" id="圖層_1" xmlns="http://www.w3.org/2000/svg" xmlns:xlink="http://www.w3.org/1999/xlink" x="0px" y="0px"
	 viewBox="0 0 250 250" style="enable-background:new 0 0 250 250;" xml:space="preserve">
<style type="text/css">
	.st0{fill:#B8151B;}
</style>
<path class="st0" d="M12,165.8c0-19.6,0.1-39.1,0-58.7c-0.1-10.6,4.1-18.8,12.8-25c31.3-22.4,62.5-45,93.7-67.5
	c4.8-3.4,8.4-3.5,13.2,0c31.5,22.7,63,45.5,94.6,68.2c7.9,5.7,11.8,13.4,11.8,23.2v120.4c0,6.4-4.3,10.8-10.6,10.8
	c-24.1,0.1-48.2,0.1-72.4,0c-6.1,0-10-4.1-10-10.3c0-14.8,0-29.5,0-44.3c0-10.9-7.1-19.3-17.3-20.9c-11.1-2-21.7,5.4-23.7,16.5
	c-0.2,1.2-0.3,2.5-0.3,3.7c-0.1,14.7,0,29.4,0,44c0,7.6-3.7,11.3-11.3,11.3h-69c-7.6,0-11.3-3.7-11.3-11.3
	C12,205.9,12,185.8,12,165.8z M85.5,218v-2.9c0-11.5-0.3-23.1,0.1-34.6c0.7-20.6,17.3-37.1,37.9-37.7c21.1-0.8,39.6,15.8,40.4,36.9
	c0.5,12,0.1,24,0.2,36v2.7h54.7v-2.6c0-36.4,0-72.8,0.1-109.2c0.2-3.5-1.5-6.8-4.4-8.7c-29.4-21.2-58.7-42.5-88-63.9
	c-0.9-0.8-2.2-0.8-3.1,0C93.8,55.3,64.4,76.4,35,97.6c-2.7,1.8-4.3,4.9-4.2,8.2c0.1,36.7,0.1,73.3,0,109.9v2.3H85.5z"/>
</svg>
