<svg id="圖層_1" data-name="圖層 1" xmlns="http://www.w3.org/2000/svg" viewBox="0 0 48 48"><defs><style>.cls-1{fill:#01b801;}.cls-2{fill:#fff;}</style></defs><title>line</title><path class="cls-1" d="M48,20.38a15.49,15.49,0,0,1-1.74,7.37A18.27,18.27,0,0,1,43.42,32a45.49,45.49,0,0,1-3.65,3.7c-1.16,1-2.33,1.95-3.52,2.9s-2.51,1.87-3.79,2.77-2.64,1.85-4,2.67a28.63,28.63,0,0,1-2.79,1.63,13.4,13.4,0,0,1-2.27,1.06c-1.23.33-1.62,0-1.5-1.22.11-1,.35-2.09.38-3.15,0-1.48-.48-2.18-2-2.39a30.86,30.86,0,0,1-5.39-1.28A26.51,26.51,0,0,1,11.05,37c-.92-.48-1.79-1-2.67-1.57a17.09,17.09,0,0,1-2.83-2.34A19.6,19.6,0,0,1,2.87,30,15.87,15.87,0,0,1,1.4,27.34,16.27,16.27,0,0,1,.12,22.61a16.62,16.62,0,0,1,.76-7.48,17.7,17.7,0,0,1,2.65-4.69,23,23,0,0,1,5.1-4.75,25,25,0,0,1,5.8-2.91A30,30,0,0,1,31,2a24.25,24.25,0,0,1,5.1,1.82,23.21,23.21,0,0,1,6.33,4.36,18.58,18.58,0,0,1,2.51,3,19.66,19.66,0,0,1,2.44,5.08A16.55,16.55,0,0,1,48,20.38Zm-24.15,0c.15.09.22.11.25.16.74,1,1.47,2,2.21,3s1.41,1.82,2.05,2.78a1,1,0,0,0,1,.58,8,8,0,0,1,1,0c.61,0,.83-.22.82-.84,0-2.9,0-5.81,0-8.71,0-2.11.25-1.79-2-1.82a.55.55,0,0,0-.62.64V22c-1-1.05-1.66-2.13-2.43-3.15-.62-.81-1.27-1.61-1.82-2.47-.38-.58-.76-1-1.5-.88a6.77,6.77,0,0,1-.78,0c-.77,0-.83.07-.83.87v8.77c0,1.8,0,1.8,1.82,1.73.73,0,.85-.16.85-.89C23.85,24.12,23.85,22.28,23.85,20.34Zm8.95.8c0,1.66,0,3.33,0,5,0,.45.15.7.63.7,2.14,0,4.28,0,6.43,0,.41,0,.64-.18.62-.63s0-.87,0-1.3-.2-.64-.67-.63c-1.06,0-2.12,0-3.18,0-1.26,0-1.24,0-1.24-1.27,0-.43.12-.57.55-.56,1.25,0,2.51,0,3.77,0,.53,0,.81-.2.77-.77a7.22,7.22,0,0,1,0-1c.05-.58-.16-.82-.77-.8-1,0-2,0-3.06,0-1.27,0-1.26,0-1.26-1.26,0-.41.1-.57.54-.56.91,0,1.82,0,2.73,0,2.1,0,1.78.24,1.82-1.84,0-.56-.21-.76-.76-.76-2,0-4.07,0-6.11,0-.58,0-.82.19-.81.79C32.82,17.89,32.8,19.51,32.8,21.14Zm-24.95,0c0,1.62,0,3.25,0,4.87,0,.64.22.84.82.83,1.67,0,3.34,0,5,0,2.18,0,1.8.21,1.84-2,0-.44-.16-.61-.61-.6-1.26,0-2.52,0-3.77,0-.6,0-.71-.18-.7-.73,0-2.4,0-4.81,0-7.21,0-.79-.1-.88-.9-.89-.33,0-.65,0-1,0-.54,0-.72.21-.72.73C7.86,17.86,7.85,19.51,7.85,21.15Zm11.73,0c0-1.3,0-2.6,0-3.9,0-2,.38-1.82-1.83-1.82-.78,0-.84.07-.84.87,0,2.88,0,5.76,0,8.64,0,2.08-.43,1.81,1.92,1.84.55,0,.77-.19.75-.76C19.56,24.44,19.58,22.81,19.58,21.19Z"/><path class="cls-2" d="M23.85,20.34c0,1.94,0,3.78,0,5.62,0,.73-.12.86-.85.89-1.82.07-1.82.07-1.82-1.73V16.35c0-.8.06-.86.83-.87a6.77,6.77,0,0,0,.78,0c.74-.09,1.12.3,1.5.88.55.86,1.2,1.66,1.82,2.47.77,1,1.47,2.1,2.43,3.15V16.12a.55.55,0,0,1,.62-.64c2.22,0,2-.29,2,1.82,0,2.9,0,5.81,0,8.71,0,.62-.21.88-.82.84a8,8,0,0,0-1,0,1,1,0,0,1-1-.58c-.64-1-1.37-1.86-2.05-2.78s-1.47-2-2.21-3C24.07,20.45,24,20.43,23.85,20.34Z"/><path class="cls-2" d="M32.77,21.14c0-1.62,0-3.25,0-4.87,0-.6.23-.8.81-.79,2,0,4.07,0,6.11,0,.56,0,.78.19.77.76,0,2.07.27,1.82-1.83,1.84-.91,0-1.82,0-2.73,0-.44,0-.54.14-.54.56,0,1.26,0,1.26,1.27,1.26,1,0,2,0,3.05,0,.61,0,.82.21.77.8a9,9,0,0,0,0,1c0,.57-.24.77-.77.76-1.26,0-2.52,0-3.77,0-.43,0-.55.13-.55.55,0,1.28,0,1.28,1.24,1.28,1.06,0,2.13,0,3.19,0,.46,0,.69.13.66.63s0,.86,0,1.29-.21.64-.62.64H33.39c-.48,0-.63-.25-.62-.71C32.78,24.48,32.77,22.81,32.77,21.14Z"/><path class="cls-2" d="M7.82,21.16c0-1.65,0-3.29,0-4.94,0-.53.18-.77.72-.74.32,0,.65,0,1,0,.81,0,.9.09.9.89,0,2.4,0,4.8,0,7.2,0,.55.1.76.7.73,1.26,0,2.51,0,3.77,0,.45,0,.62.17.62.61-.05,2.17.33,1.94-1.85,2-1.66,0-3.33,0-5,0-.59,0-.84-.19-.82-.83C7.85,24.4,7.82,22.78,7.82,21.16Z"/><path class="cls-2" d="M19.56,21.2c0,1.62,0,3.24,0,4.87,0,.57-.2.77-.76.76-2.35,0-1.9.23-1.92-1.85,0-2.87,0-5.75,0-8.63,0-.8.06-.87.84-.87,2.21,0,1.8-.16,1.83,1.82C19.57,18.6,19.56,19.9,19.56,21.2Z"/></svg>