<svg xmlns="http://www.w3.org/2000/svg" width="57" height="65" viewBox="0 0 57 65">
  <defs>
    <style>
      .cls-1 {
        fill: #fff;
        fill-rule: evenodd;
      }
    </style>
  </defs>
  <path id="形狀_6" data-name="形狀 6" class="cls-1" d="M171.969,1166.05a19.774,19.774,0,0,1-.447,2.94,2.02,2.02,0,0,0-.239.04c-0.195-.19-0.394-0.36-0.581-0.54q-4.224-4.275-8.439-8.54a2.126,2.126,0,0,0-3.031-.29,2.373,2.373,0,0,0-.079,3.53c2.146,2.19,4.321,4.34,6.455,6.55,0.828,0.85,1.573,1.8,2.437,2.8a18.429,18.429,0,0,1-2.839.42c-6.663.04-13.329,0.02-19.992,0.02-7.806,0-15.612.02-23.417-.02a20.954,20.954,0,0,1-3.039-.45c0.638-.7,1.1-1.23,1.589-1.73q3.74-3.795,7.5-7.58a2.359,2.359,0,0,0,.658-2.36,2.119,2.119,0,0,0-1.593-1.62,2.186,2.186,0,0,0-2.179.73q-4.206,4.275-8.435,8.54c-0.179.18-.358,0.35-0.6,0.59a6.468,6.468,0,0,1-.693-3.01v-8.71c0-7.73.016-15.46-.008-23.18a7.379,7.379,0,0,1,2.831-6.16c0.3-.23.59-0.47,0.881-0.72v6.38l21.151,20.24a4.962,4.962,0,0,0,3.6,1.64,5.311,5.311,0,0,0,3.684-1.64l21.127-20.22v-6.42q0.628,0.525,1.243,1.05a6.84,6.84,0,0,1,2.461,5.39Q172,1149.875,171.969,1166.05Zm-7.739-48.92-7.363-7.74a4.054,4.054,0,0,0-2.951-1.29H128.057a6.7,6.7,0,0,0-6.523,6.86v17.41l20.271,19.4a2.222,2.222,0,0,0,3.4,0l20.251-19.38v-12.15A4.514,4.514,0,0,0,164.23,1117.13Zm-15.6,15.67c-0.7.01-2.011,0-2.808,0,0,0.77,0,2.83,0,3.56a2.351,2.351,0,1,1-4.659.01c0-.7,0-2.75,0-3.57-0.809,0-2.171.01-2.891-.01a2.445,2.445,0,0,1,.024-4.89c0.72-.01,2.078,0,2.867,0,0-.84-0.008-2.87,0-3.63a2.335,2.335,0,1,1,4.651-.02c0.016,0.77,0,2.8,0,3.65,0.777,0,2.111-.01,2.832,0A2.45,2.45,0,1,1,148.631,1132.8Zm11.848-12.04h-5.89a1.423,1.423,0,0,1-1.39-1.46v-6.2a1.382,1.382,0,0,1,2.373-1.03l5.89,6.19A1.474,1.474,0,0,1,160.479,1120.76Zm-4.835-12.66-0.1-.1" transform="translate(-115 -1108)"/>
</svg>
