<svg xmlns="http://www.w3.org/2000/svg" width="57.844" height="75" viewBox="0 0 57.844 75">
  <defs>
    <style>
      .cls-1 {
        fill: #fff;
        fill-rule: evenodd;
      }
    </style>
  </defs>
  <path id="形狀_12" data-name="形狀 12" class="cls-1" d="M158.617,1523.83c-1.258-.12-2.514-0.25-3.773-0.36a8.844,8.844,0,0,0-1.918-.08,2.987,2.987,0,0,0-1.569.61c-1,.94-1.869,2.03-2.8,3.04a27.661,27.661,0,0,1-2.148,2.27,4.943,4.943,0,0,1-7.012-.06,37.2,37.2,0,0,1-2.676-2.92,14.824,14.824,0,0,1-1.038-1.25,4.326,4.326,0,0,0-4.511-1.66,32.365,32.365,0,0,1-4.916.32,4.967,4.967,0,0,1-5.237-5.17c-0.047-1.57.184-3.15,0.292-4.73a3.407,3.407,0,0,1,.046-0.36,4.342,4.342,0,0,0-1.886-4.58,28,28,0,0,1-4.079-3.63c-1.879-2.09-1.823-4.51-.082-6.72a8.211,8.211,0,0,1,1.064-1.14c1.062-.92,2.116-1.85,3.242-2.69a4.146,4.146,0,0,0,1.786-4.22c-0.2-1.51-.318-3.03-0.4-4.55a7.606,7.606,0,0,1,.191-2.08,4.832,4.832,0,0,1,4.819-3.86c1.7-.04,3.4.17,5.1,0.27a1.938,1.938,0,0,1,.238.04,4.135,4.135,0,0,0,4.3-1.61c1.013-1.29,2.1-2.53,3.209-3.74a5.857,5.857,0,0,1,2.983-1.83,4.793,4.793,0,0,1,4.6,1.33c1.138,1.09,2.127,2.34,3.18,3.52a7.07,7.07,0,0,1,.582.69,4.275,4.275,0,0,0,4.46,1.64,32.37,32.37,0,0,1,4.915-.33,4.994,4.994,0,0,1,5.268,5.33,45.62,45.62,0,0,1-.374,5.39,3.975,3.975,0,0,0,1.684,3.91c1.056,0.8,2.068,1.65,3.08,2.5a11.006,11.006,0,0,1,1.1,1.11c2.039,2.35,2.053,5.02-.082,7.29-1.039,1.1-2.265,2.03-3.411,3.03-0.377.33-.762,0.65-1.152,0.97a3.48,3.48,0,0,0-1.252,3.27c0.149,1.67.327,3.34,0.423,5.02a7.4,7.4,0,0,1-.187,2.03,4.925,4.925,0,0,1-4.678,3.9c-0.458.03-.921,0-1.383,0C158.621,1523.77,158.618,1523.8,158.617,1523.83Zm-2.06-33.38a2.055,2.055,0,0,0-2.5-1.94,3.069,3.069,0,0,0-1.192.75q-7.981,7.935-15.935,15.89-3.408,3.4-6.815,6.8a1.884,1.884,0,0,0-.517,2.09,1.839,1.839,0,0,0,1.558,1.25,2.138,2.138,0,0,0,1.858-.79q8.977-8.97,17.967-17.94c1.576-1.57,3.168-3.13,4.714-4.73A7.337,7.337,0,0,0,156.557,1490.45Zm-18.91,3.27a2.888,2.888,0,1,0-2.861,2.86A2.851,2.851,0,0,0,137.647,1493.72Zm13.5,13.43a2.87,2.87,0,0,0-2.91,2.88A2.889,2.889,0,1,0,151.147,1507.15Zm17.828,34.14-9.087-1.43-4.256,8.14-8.01-15.9a6.817,6.817,0,0,0,.73-0.57,23.192,23.192,0,0,0,1.876-1.92c0.165-.19.339-0.38,0.513-0.57,0.313-.35.625-0.71,0.938-1.06,0.512-.58,1-1.15,1.5-1.64,0.035-.01.078-0.02,0.13-0.03h0.122a5.715,5.715,0,0,1,.721.06l0.434,0.04c0.886,0.08,1.763.16,2.65,0.25l4.161,0.4Zm-31.161-9.51L129.64,1548l-4.266-8.14-9.086,1.43,7.531-14.94a9.54,9.54,0,0,0,2.38.34c0.174,0,.348.01,0.513,0.01a37.153,37.153,0,0,0,4.856-.36,4.838,4.838,0,0,1,.617-0.05,1.09,1.09,0,0,1,1.1.53c0.391,0.53.809,1,1.225,1.47l0.7,0.81a28.114,28.114,0,0,0,2.18,2.33C137.536,1531.55,137.675,1531.67,137.814,1531.78Z" transform="translate(-114 -1473)"/>
</svg>
