<svg xmlns="http://www.w3.org/2000/svg" width="65.062" height="51" viewBox="0 0 65.062 51">
  <defs>
    <style>
      .cls-1 {
        fill: #fff;
        fill-rule: evenodd;
      }
    </style>
  </defs>
  <path id="形狀_14" data-name="形狀 14" class="cls-1" d="M142.481,1719.96q-13.467,0-26.934,0c-2.788,0-4.942-1.55-5.407-4.1a10.785,10.785,0,0,1,.019-3.83,5.082,5.082,0,0,1,5.031-4.05c1.843-.02,3.686,0,5.529,0h48.695a5.154,5.154,0,0,1,5.428,4.18,10.662,10.662,0,0,1,0,3.63,5.024,5.024,0,0,1-5,4.15c-2.953.05-5.906,0.02-8.86,0.02h-18.5Zm29.49-14.87c-1.787-.04-3.524-0.09-5.261-0.1q-9.746-.015-19.492,0h-0.9c-0.018-.28-0.045-0.51-0.045-0.73q0-5.835,0-11.67c0-1.78.849-2.61,2.66-2.61h20.414a2.317,2.317,0,0,1,2.622,2.59q0,6,0,12.02v0.5Zm-58.145-.12c0.507-2.92.9-5.84,1.542-8.71a8.126,8.126,0,0,1,7.967-6.27c3.094-.03,6.187-0.01,9.281-0.01a8.235,8.235,0,0,1,8.383,6.83c0.5,2.57.887,5.16,1.321,7.74a2.972,2.972,0,0,1,0,.42h-28.5ZM127.392,1669a9.736,9.736,0,1,1-9.864,9.7A9.784,9.784,0,0,1,127.392,1669Z" transform="translate(-109.969 -1669)"/>
</svg>
