<svg xmlns="http://www.w3.org/2000/svg" width="74.969" height="75" viewBox="0 0 74.969 75">
  <defs>
    <style>
      .cls-1 {
        fill: #fff;
        fill-rule: evenodd;
      }
    </style>
  </defs>
  <path id="形狀_16" data-name="形狀 16" class="cls-1" d="M106,2039.72c0.136-.58.261-1.17,0.409-1.76a13.165,13.165,0,0,1,25.838,1.59,12.807,12.807,0,0,1-1.942,8.67,0.709,0.709,0,0,0,.093,1.09q3.321,3.255,6.576,6.57a0.693,0.693,0,0,0,1.039.13,10.586,10.586,0,0,1,8.948-.91,0.785,0.785,0,0,0,1.106-.39q3.661-5.565,7.387-11.08a0.847,0.847,0,0,0,0-1.09,6.5,6.5,0,0,1,.527-7.58,6.582,6.582,0,1,1,4.1,10.67,0.854,0.854,0,0,0-1.01.44q-3.687,5.6-7.425,11.14a0.7,0.7,0,0,0,.075,1.05,10.794,10.794,0,0,1,2.531,5h9.427a8.82,8.82,0,0,1,5-5.8,8.582,8.582,0,0,1,5.864-.43,8.795,8.795,0,1,1-10.879,10.71h-9.38a11.2,11.2,0,0,1-8.565,8.55v9.4a8.906,8.906,0,0,1,4.763,3.21,8.8,8.8,0,0,1-5.35,13.95,4.022,4.022,0,0,0-.471.15h-2.343a4.083,4.083,0,0,0-.471-0.15,8.8,8.8,0,0,1-.606-17.14v-9.45a10.617,10.617,0,0,1-4.948-2.5,0.779,0.779,0,0,0-1.172-.05c-3.5,2.36-7,4.71-10.531,7.02a1.623,1.623,0,0,0-.932,1.82,6.488,6.488,0,0,1-4.463,6.79,6.593,6.593,0,0,1-6.724-10.92,6.525,6.525,0,0,1,8.071-.95,0.841,0.841,0,0,0,1.086-.02q5.553-3.735,11.139-7.42a0.711,0.711,0,0,0,.338-1,10.655,10.655,0,0,1,.933-9.08,0.624,0.624,0,0,0-.12-0.92q-3.357-3.33-6.675-6.68a0.632,0.632,0,0,0-.978-0.07,13.164,13.164,0,0,1-19.881-7.94c-0.141-.56-0.261-1.13-0.391-1.69v-2.93Z" transform="translate(-106 -2028)"/>
</svg>
