<svg xmlns="http://www.w3.org/2000/svg" width="61" height="75" viewBox="0 0 61 75">
  <defs>
    <style>
      .cls-1 {
        fill: #fff;
        fill-rule: evenodd;
      }
    </style>
  </defs>
  <path id="形狀_15" data-name="形狀 15" class="cls-1" d="M147.073,1917.97c-7.645,0-15.29-.05-22.935.03a5.761,5.761,0,0,1-5.085-2.64,22.717,22.717,0,0,1-3.157-7.27,78.876,78.876,0,0,1-2.358-14.5,157.633,157.633,0,0,1-.329-21.25c0.354-6.97.945-13.91,3.072-20.6a31.238,31.238,0,0,1,2.734-5.97,5.467,5.467,0,0,1,5.179-2.77c13.707,0.07,27.415.11,41.121,0a8.467,8.467,0,0,1,8.467,7.81,19.086,19.086,0,0,1,.121,2.08q0,19.635-.008,39.28a13.855,13.855,0,0,1-1.147,6.01,5.365,5.365,0,0,1-5.335,3.47c-11.139-.08-22.278-0.04-33.417-0.02a8.422,8.422,0,0,0-2.294.29,4.528,4.528,0,0,0-3.3,4.8,4.59,4.59,0,0,0,3.8,4.33,10.7,10.7,0,0,0,1.958.16q18.188,0.015,36.374.01c2.683,0,4.056,1.95,3.22,4.56a2.9,2.9,0,0,1-3.03,2.19H147.073Zm-4.485-45.67c-0.579,4.2-1.13,8.28-1.7,12.35a6.6,6.6,0,0,0,4.688,7.4,14.149,14.149,0,0,0,2.923.28c3.323,0.17,5.656-1.59,7.525-4.13a4.971,4.971,0,0,0,.78-1.99,2.115,2.115,0,0,0-1.553-2.51,1.977,1.977,0,0,0-2.475,1.2,5.287,5.287,0,0,1-1.149,1.48,2.338,2.338,0,0,1-2.762.29,2.081,2.081,0,0,1-.867-2.38q0.489-3.735.986-7.47c0.314-2.4.639-4.8,0.931-7.2a3.184,3.184,0,0,0-2.731-3.88,4.761,4.761,0,0,0-1.061-.13c-2.12-.02-4.24-0.03-6.359-0.01a2.845,2.845,0,0,0-.736,5.62C140.193,1871.57,141.362,1871.92,142.588,1872.3Zm8.838-15.41a4.812,4.812,0,0,0-9.623-.01A4.812,4.812,0,1,0,151.426,1856.89Z" transform="translate(-113 -1843)"/>
</svg>
