<svg xmlns="http://www.w3.org/2000/svg" width="80" height="80" viewBox="0 0 80 80">
  <defs>
    <style>
      .cls-1 {
        fill: #fff;
        fill-rule: evenodd;
      }
    </style>
  </defs>
  <path id="形狀_8" data-name="形狀 8" class="cls-1" d="M154.312,2397c0.523,0.14,1.052.26,1.569,0.43a9.029,9.029,0,0,1,6.421,8.58c0.048,5,.021,10,0.011,15a2.516,2.516,0,0,1-2.466,2.67,2.568,2.568,0,0,1-2.523-2.72c-0.013-4.87,0-9.73-.01-14.6a4.123,4.123,0,0,0-3.44-4.29,4.873,4.873,0,0,0-.854-0.07H132.555c-0.1,0-.207.01-0.511,0.03,0.365,0.14.556,0.23,0.753,0.3,1.674,0.56,3.356,1.1,5.023,1.69a6.573,6.573,0,0,1,4.483,6.15c0.044,2.68.015,5.37,0.016,8.05v43.73c0.293,0.02.541,0.05,0.788,0.05h9.764a4.151,4.151,0,0,0,4.444-4.44c0.011-4.82,0-9.63.008-14.45a2.51,2.51,0,0,1,3.144-2.68,2.452,2.452,0,0,1,1.834,2.18c0.017,0.2.016,0.41,0.016,0.62,0,4.79.013,9.58,0,14.37a9.145,9.145,0,0,1-9.438,9.4H142.319v2.69c0,3.94-1.734,6.19-5.543,7.22a0.4,0.4,0,0,0-.12.09h-2.031c-0.466-.15-0.933-0.29-1.4-0.44q-9.713-3.225-19.422-6.46a6.653,6.653,0,0,1-4.678-5.17,1.441,1.441,0,0,0-.129-0.27v-62.04a23.6,23.6,0,0,1,1.59-3.2,6.531,6.531,0,0,1,4.191-2.42h39.531Zm-16.993,43.32q0-14.76,0-29.53a1.861,1.861,0,0,0-1.529-2.2q-9.612-3.2-19.228-6.4c-1.568-.52-2.561.2-2.561,1.86q0,29.625,0,59.27a1.821,1.821,0,0,0,1.5,2.07q2.772,0.93,5.549,1.84,6.8,2.28,13.609,4.54c1.724,0.58,2.653-.1,2.66-1.94,0-.2,0-0.41,0-0.62Q137.32,2454.765,137.319,2440.32ZM189,2432.78c-0.516.6-1,1.24-1.554,1.8q-5.755,5.775-11.54,11.54a2.505,2.505,0,1,1-3.515-3.55q3.713-3.69,7.4-7.4c0.177-.17.341-0.36,0.626-0.67H155.082a2.509,2.509,0,0,1-2.653-3.16,2.475,2.475,0,0,1,2.193-1.83c0.285-.02.572-0.01,0.859-0.01h24.942c-0.275-.3-0.447-0.49-0.632-0.68q-3.753-3.75-7.5-7.51a2.455,2.455,0,0,1-.548-2.87,2.345,2.345,0,0,1,2.471-1.4,3.105,3.105,0,0,1,1.573.74q6.288,6.195,12.5,12.46a7.374,7.374,0,0,1,.715.98v1.56Z" transform="translate(-109 -2397)"/>
</svg>
