<svg xmlns="http://www.w3.org/2000/svg" width="75" height="66.03" viewBox="0 0 75 66.03">
  <defs>
    <style>
      .cls-1 {
        fill: #fff;
        fill-rule: evenodd;
      }
    </style>
  </defs>
  <path id="形狀_11" data-name="形狀 11" class="cls-1" d="M160.051,1306.45H149.572a9.667,9.667,0,0,0-2.228-12.33,8.933,8.933,0,0,0-5.334-2.12,9.332,9.332,0,0,0-7.656,3.28,9.251,9.251,0,0,0-12.017-1.87,9.413,9.413,0,0,0-3.89,4.77,9.647,9.647,0,0,0,.669,8.27h-0.91c-3.2,0-6.4-.02-9.6,0a2.4,2.4,0,0,0-2.6,2.66v9.05a2.432,2.432,0,0,0,2.677,2.75h33.593q0.393-.45.816-0.9a19.091,19.091,0,0,1,11.725-5.86,21.356,21.356,0,0,1,2.395-.14,18.118,18.118,0,0,1,5.491.83v-5.68A2.43,2.43,0,0,0,160.051,1306.45Zm-28.081-.02c-1.726,0-3.347.06-4.968-.01a4.812,4.812,0,1,1,4.947-5.23C132.054,1302.91,131.97,1304.64,131.97,1306.43Zm9.58,0c-1.579.04-3.148,0.02-4.811,0.02,0-1.86-.115-3.65.031-5.41a4.628,4.628,0,0,1,5.031-4.22A4.819,4.819,0,0,1,141.55,1306.43Zm-9.612,43.42h-3.81q-7.339,0-14.678-.01a2.44,2.44,0,0,1-2.722-2.77q0-10.29,0-20.56v-0.72h21.21v24.06Zm12.76-.01H136.76v-24.08h2.4A20.453,20.453,0,0,0,144.7,1349.84Zm36.294,5.23a3.541,3.541,0,0,1-1.052,2.03,3.184,3.184,0,0,1-4.629-.24q-4.306-4.38-8.6-8.78a1.742,1.742,0,0,1-.226-0.33c-1.073.58-2.008,1.17-3.01,1.59a15.5,15.5,0,0,1-13.113-.18,15.917,15.917,0,0,1-7.428-7.05,16.752,16.752,0,0,1,2.685-19.55,15.9,15.9,0,0,1,19.126-2.96,16.156,16.156,0,0,1,6.012,5.69,16.727,16.727,0,0,1,.306,17.23,0.513,0.513,0,0,0,.09.76c2.787,2.82,5.55,5.67,8.339,8.49a4.757,4.757,0,0,1,1.5,2.5v0.8Zm-12.929-20.9a10.947,10.947,0,1,0-10.962,11.16A11.091,11.091,0,0,0,168.063,1334.17Z" transform="translate(-106 -1291.97)"/>
</svg>
