<svg xmlns="http://www.w3.org/2000/svg" width="80" height="80" viewBox="0 0 80 80">
  <defs>
    <style>
      .cls-1 {
        fill: #fff;
        fill-rule: evenodd;
      }
    </style>
  </defs>
  <path id="形狀_7" data-name="形狀 7" class="cls-1" d="M103,2252.52v-5c0.045-.23.1-0.45,0.134-0.68,0.316-2.03.49-4.09,0.966-6.07a40,40,0,1,1,45.788,48.62c-1.457.25-2.927,0.41-4.391,0.61h-5c-0.174-.04-0.346-0.1-0.523-0.13-1.825-.26-3.667-0.44-5.473-0.8a39.982,39.982,0,0,1-30.876-32.01C103.38,2255.55,103.206,2254.03,103,2252.52Zm11.524-23.38a34.675,34.675,0,0,0-6.745,18.49h14.084a72.564,72.564,0,0,1,1.973-14.88Zm9.338,38.24a72.933,72.933,0,0,1-2-14.98H107.776a34.806,34.806,0,0,0,6.814,18.58c1.571-.67,3.031-1.35,4.529-1.93C120.64,2268.45,122.2,2267.96,123.862,2267.38Zm47.611-38.24c-3.169,1.23-6.209,2.41-9.318,3.61a72.868,72.868,0,0,1,1.978,14.88h14.082A34.831,34.831,0,0,0,171.473,2229.14Zm0,41.76a34.879,34.879,0,0,0,6.743-18.5H164.123a72.649,72.649,0,0,1-1.958,14.88C165.314,2268.51,168.333,2269.68,171.472,2270.9Zm-30.862-23.26v-12.41c-4.093-.46-8.13-0.91-12.214-1.37a64.7,64.7,0,0,0-1.827,13.78H140.61Zm18.778,0a65.057,65.057,0,0,0-1.645-13.22,0.663,0.663,0,0,0-.95-0.6c-2.131.33-4.266,0.65-6.409,0.9-1.646.19-3.307,0.27-4.985,0.4v12.52h13.989Zm-30.99,18.53c4.109-.46,8.15-0.91,12.211-1.36v-12.4H126.566A64.706,64.706,0,0,0,128.4,2266.17Zm31.031-13.75H145.394v12.39c4.086,0.45,8.106.9,12.2,1.36A64.809,64.809,0,0,0,159.429,2252.42Zm-3.27-23.08a4.87,4.87,0,0,0-.1-0.57,33.231,33.231,0,0,0-4.513-8.68,14.656,14.656,0,0,0-5.1-4.51,10.148,10.148,0,0,0-1.054-.42v15.36C149.011,2230.12,152.563,2229.73,156.159,2229.34Zm-15.549,1.18v-15.48c-6.114,2.9-8.546,8.4-10.919,14.28C133.429,2229.73,136.98,2230.12,140.61,2230.52Zm4.774,39V2285c6.111-2.91,8.548-8.4,10.92-14.29C152.565,2270.3,149.013,2269.92,145.384,2269.52Zm-4.78,15.56v-15.56c-3.623.4-7.174,0.79-10.9,1.19,0.538,1.32.95,2.44,1.442,3.52a22.979,22.979,0,0,0,6.267,8.81A32.987,32.987,0,0,0,140.6,2285.08Zm14.547-68.14a43.059,43.059,0,0,1,5.687,11.27c2.5-.94,4.921-1.84,7.477-2.79A34.278,34.278,0,0,0,155.151,2216.94Zm0.037,66.22a35.327,35.327,0,0,0,13.129-8.55c-2.579-.95-5.013-1.86-7.389-2.74-0.906,2.08-1.635,4.01-2.563,5.83C157.424,2279.54,156.287,2281.29,155.188,2283.16Zm-30.13-55c0.916-2.09,1.663-4.03,2.6-5.87s2.07-3.58,3.143-5.41a35.348,35.348,0,0,0-13.122,8.54C120.229,2226.37,122.647,2227.27,125.058,2228.16Zm5.78,54.93a42.716,42.716,0,0,1-5.675-11.26c-2.492.93-4.922,1.84-7.481,2.79A34.284,34.284,0,0,0,130.838,2283.09Z" transform="translate(-103 -2210)"/>
</svg>
