<?xml version="1.0" encoding="utf-8"?>
<!-- Generator: Adobe Illustrator 21.1.0, SVG Export Plug-In . SVG Version: 6.00 Build 0)  -->
<svg version="1.1" id="圖層_1" xmlns="http://www.w3.org/2000/svg" xmlns:xlink="http://www.w3.org/1999/xlink" x="0px" y="0px"
	 viewBox="0 0 250 250" style="enable-background:new 0 0 250 250;" xml:space="preserve">
<style type="text/css">
	.st0{fill:#B8151B;}
</style>
<path class="st0" d="M118.1,250c-3.3-0.5-6.6-0.9-9.8-1.4c-39.5-6.3-72.4-37.1-80.9-76.4c-6.3-28.9-1-55.8,15.9-80.1
	c5.9-8.5,12-16.8,18.3-25.6c2.4,2.4,4.5,4.7,6.7,7c2.4,2.5,5,4.9,7.4,7.4c3.6,3.6,7.8,4.7,12.5,3c4.8-1.9,7-5.8,7.3-10.9
	c0.4-6.2,0.7-12.5,1.8-18.7c3.5-18.1,13.7-32,28-43.3c6.1-4.7,12.9-8.4,20.1-11.1c0.4,1.4,0.8,2.8,1.2,4.1
	c3.6,14.1,10.3,26.8,17.7,39.2c10.3,17.3,22.8,32.8,36.1,47.9c10.3,11.5,17.9,25.1,22.1,40c4.6,16.8,3.2,33.5-2.4,49.7
	c-12.6,35.8-37.6,58.1-74.6,66.9c-4.5,1.1-9.1,1.4-13.7,2.1L118.1,250z M63.7,88.6c-3.4,4.7-6.2,8.6-8.9,12.5
	c-14.7,21.6-19,45.3-12.5,70.5c11.3,43.5,53.1,69.9,97.8,62.3c38.8-6.6,69-41.2,70.3-80.5c0.5-14.3-4-27-11.2-39
	c-5.6-9.5-13.3-17.2-20.3-25.6c-16.9-20.3-31.6-42-41.8-66.5c-0.2-0.4-0.5-0.9-0.8-1.3c-12.5,9.4-21.8,20.8-24.7,36.4
	c-1.1,6-1.1,12.1-1.8,18.2c-1.2,10.6-6.8,18.1-16.7,21.8c-10.1,3.8-19.4,1.7-27.3-5.7C65.1,90.8,64.3,89.7,63.7,88.6z"/>
<path class="st0" d="M155.9,124.4c-0.8,1.2-1.2,1.9-1.7,2.6c-14.3,20.9-28.5,41.8-42.7,62.6c-0.8,1.4-2.3,2.3-3.9,2.1
	c-4.4-0.1-8.8-0.1-13.5-0.1c0.5-0.9,0.8-1.5,1.2-2.1c14.5-21.2,29-42.4,43.5-63.6c0.5-0.8,1.4-1.4,2.4-1.6
	C145.9,124.3,150.7,124.4,155.9,124.4z"/>
<path class="st0" d="M167.5,173.8c0.1,16.7-14.1,21.4-24.7,17.6c-6.4-2.3-9.6-7.2-10.7-13.7c-1.5-8.4,1.6-16.5,7.9-20.1
	c5.9-3.5,13.2-3.6,19.1-0.2C164.5,160.4,167.5,166.4,167.5,173.8z M154.1,173.9c-0.5-2.1-0.6-4.2-1.4-6c-0.6-1.2-1.7-2-3-2.3
	c-1.3,0.2-2.5,0.9-3.1,2.1c-1.8,3.9-1.8,8.4,0,12.3c0.6,1.1,1.7,1.8,2.9,2c1.3-0.2,2.4-0.9,3.1-2.1
	C153.3,178,153.8,175.9,154.1,173.9z"/>
<path class="st0" d="M82.4,140.3c0.2-5.8,2.7-12.2,10.1-15.3c7.1-3,14.1-2.4,20,3c6.4,5.7,7.5,17.9,2.6,25.5
	c-4.4,6.8-14.1,9.4-22.4,6C86.2,156.7,82.4,150.5,82.4,140.3z M95.7,142.1c0.5,2.1,0.7,4.3,1.5,6.1c0.7,1.1,1.8,1.9,3.1,2.1
	c1.2-0.2,2.3-0.9,2.9-2c1.8-3.9,1.8-8.4,0-12.3c-0.7-1.1-1.8-1.9-3.1-2.1c-1.2,0.2-2.3,0.9-2.9,2C96.6,137.9,96,140,95.7,142.1z"/>
</svg>
