<svg id="圖層_1" data-name="圖層 1" xmlns="http://www.w3.org/2000/svg" viewBox="0 0 250 250"><defs><style>.cls-1{fill:#fff;}</style></defs><title>未命名-1</title><path class="cls-1" d="M118.1,250c-3.28-.48-6.57-.91-9.85-1.43-39.54-6.26-72.36-37.07-80.93-76.38C21,143.26,26.27,116.44,43.2,92.06c5.89-8.48,12-16.79,18.33-25.61,2.36,2.44,4.53,4.72,6.73,7,2.45,2.5,5,4.95,7.42,7.43,3.56,3.61,7.81,4.74,12.51,3C93,82,95.15,78.06,95.51,73c.45-6.23.67-12.54,1.85-18.66,3.48-18.12,13.72-32,28-43.28A78.08,78.08,0,0,1,145.43,0c.39,1.39.8,2.76,1.16,4.13,3.64,14.09,10.32,26.82,17.69,39.21,10.28,17.28,22.83,32.84,36.11,47.88a100.19,100.19,0,0,1,22.09,40c4.64,16.82,3.21,33.54-2.45,49.71-12.56,35.81-37.65,58.07-74.56,66.87-4.48,1.07-9.12,1.45-13.68,2.15ZM63.67,88.56c-3.36,4.72-6.22,8.57-8.91,12.53-14.68,21.63-19,45.26-12.45,70.51,11.31,43.47,53.1,69.91,97.79,62.33,38.8-6.58,69-41.24,70.31-80.49.48-14.29-4-27-11.18-39-5.63-9.46-13.32-17.24-20.3-25.6C162,68.55,147.31,46.87,137.15,22.34a9.69,9.69,0,0,0-.8-1.26c-12.48,9.41-21.84,20.76-24.65,36.39-1.08,6-1.09,12.13-1.77,18.18-1.18,10.57-6.75,18.11-16.67,21.85-10.1,3.81-19.36,1.68-27.3-5.7A20.15,20.15,0,0,1,63.67,88.56Z"/><path class="cls-1" d="M155.93,124.36c-.75,1.16-1.2,1.91-1.68,2.63q-21.39,31.32-42.73,62.64a4.08,4.08,0,0,1-3.94,2.12c-4.38-.15-8.75-.05-13.52-.05.5-.9.78-1.52,1.16-2.07Q116.93,157.8,138.7,126a3.62,3.62,0,0,1,2.38-1.59C145.87,124.29,150.67,124.36,155.93,124.36Z"/><path class="cls-1" d="M167.47,173.78c.07,16.66-14.06,21.43-24.74,17.62-6.37-2.28-9.58-7.18-10.71-13.66-1.46-8.39,1.62-16.5,7.91-20.06a18.87,18.87,0,0,1,19.1-.16C164.53,160.45,167.46,166.39,167.47,173.78Zm-13.34.12c-.46-2.1-.61-4.18-1.42-6a4.27,4.27,0,0,0-3-2.25,4.11,4.11,0,0,0-3.11,2.09,14.91,14.91,0,0,0,0,12.25,3.9,3.9,0,0,0,2.94,2,4.25,4.25,0,0,0,3.11-2.07A32,32,0,0,0,154.13,173.9Z"/><path class="cls-1" d="M82.41,140.26c.15-5.77,2.65-12.19,10.12-15.28,7.11-3,14.11-2.37,20,3,6.4,5.72,7.49,17.86,2.55,25.47-4.42,6.82-14.14,9.43-22.43,6C86.15,156.74,82.41,150.46,82.41,140.26Zm13.31,1.82c.48,2.11.67,4.27,1.52,6.12a4.24,4.24,0,0,0,3.12,2.06,3.85,3.85,0,0,0,2.92-2,14.91,14.91,0,0,0,0-12.25,4.23,4.23,0,0,0-3.13-2.08,3.9,3.9,0,0,0-2.9,2A35.24,35.24,0,0,0,95.72,142.08Z"/></svg>