<svg xmlns="http://www.w3.org/2000/svg" width="53" height="44" viewBox="0 0 53 44">
  <defs>
    <style>
      .cls-1 {
        fill: #999;
        fill-rule: evenodd;
      }
    </style>
  </defs>
  <path id="形狀_17" data-name="形狀 17" class="cls-1" d="M431,236.889a1.573,1.573,0,0,1,1.7-.949c0.787,0.044,1.579.009,2.3,0.009,0.377-11,5.552-18.5,16.258-22.1a22.788,22.788,0,0,1,21.366,4.853l-4.688,5.381c-5.981-4.679-12.319-5.525-18.842-1.407-4.794,3.026-6.866,7.624-6.725,13.272H444.9l0.828,0a1.236,1.236,0,0,1,1.2.734,1.211,1.211,0,0,1-.229,1.414q-1.626,1.842-3.261,3.676-2.091,2.353-4.183,4.706c-0.066.074-.145,0.137-0.239,0.226l-4.3-4.831q-1.6-1.8-3.192-3.6c-0.188-.214-0.349-0.451-0.522-0.677v-0.711Zm53-1.828a1.58,1.58,0,0,1-1.7.942c-0.787-.046-1.58-0.01-2.321-0.01-1.145,9.931-6.219,16.885-15.989,19.94-7.372,2.306-14.253.8-20.5-3.792l4.7-5.4c5.68,3.766,11.514,4.244,17.427.712a14.36,14.36,0,0,0,6.946-11.464H470.1c-0.259,0-.518,0-0.776,0a1.252,1.252,0,0,1-1.245-.744,1.211,1.211,0,0,1,.238-1.412l3.093-3.483,4.565-5.133c0.512,0.57,1.008,1.119,1.5,1.671q2.942,3.31,5.878,6.623c0.234,0.264.436,0.555,0.653,0.834v0.711Z" transform="translate(-431 -213)"/>
</svg>
