<svg xmlns="http://www.w3.org/2000/svg" width="37" height="39.031" viewBox="0 0 37 39.031">
  <defs>
    <style>
      .cls-1 {
        fill: #a3a3a3;
        fill-rule: evenodd;
      }
    </style>
  </defs>
  <path id="形狀_4" data-name="形狀 4" class="cls-1" d="M104.992,387.986L92.868,374.617a13.762,13.762,0,0,0-2.009-19.5A14.11,14.11,0,0,0,71.151,357.1a13.762,13.762,0,0,0,2.009,19.5,14.093,14.093,0,0,0,8.081,3.095h0.771a13.8,13.8,0,0,0,7.569-2.237L101.705,391ZM81.48,375.379a9.552,9.552,0,1,1,6.85-2.406A9.528,9.528,0,0,1,81.48,375.379Z" transform="translate(-68 -351.969)"/>
</svg>
