<?xml version="1.0" encoding="utf-8"?>
<!-- Generator: Adobe Illustrator 23.0.3, SVG Export Plug-In . SVG Version: 6.00 Build 0)  -->
<svg version="1.1" id="圖層_1" xmlns="http://www.w3.org/2000/svg" xmlns:xlink="http://www.w3.org/1999/xlink" x="0px" y="0px"
	 viewBox="0 0 48 48" style="enable-background:new 0 0 48 48;" xml:space="preserve">
<style type="text/css">
	.st0{fill:#01AAE9;}
	.st1{fill:#FDFEFE;}
</style>
<g>
	<path class="st0" d="M47.6,30.9c-0.2-1-0.5-1.9-1-2.7c-0.3-0.5-0.3-0.9-0.2-1.4c0.7-3.8,0.1-7.5-1.4-11c-1.5-3.6-3.8-6.7-6.9-9.2
		c-0.2-0.1-0.3-0.2-0.5-0.3c-0.1-0.1-0.2-0.2-0.3-0.3C34.3,3.6,30.8,2.3,27,1.7c-1.9-0.3-3.9-0.3-5.8-0.1c-0.9,0.1-1.7,0-2.6-0.4
		c-3.9-1.7-7.7-1.6-11.5,0.4C0.7,5.2-1.8,13.2,1.4,19.8c0.1,0.2,0.3,0.4,0.2,0.7c-0.3,2-0.3,4-0.1,6.1c0.3,2.1,0.8,4,1.6,5.9
		c3,7.1,8.2,11.6,15.8,13.3c2.9,0.6,5.8,0.6,8.7,0.2c0.2,0,0.4,0,0.6,0.1c1.6,0.8,3.3,1.4,5.1,1.7c0,0,0.1,0.1,0.1,0.1h2.9
		c0.4-0.2,0.8-0.2,1.2-0.3c4.9-1.3,8-4.6,9.7-9.3c0.3-0.9,0.4-1.9,0.7-2.9v-3.1C47.7,31.9,47.7,31.4,47.6,30.9z M34.6,33.4
		c-1.8,2.7-4.4,4.3-7.6,4.8c-4,0.6-7.8-0.1-11.3-2.2c-1.4-0.8-2.6-1.9-3.1-3.5c-0.3-0.9-0.2-1.8,0.4-2.5c0.7-0.8,1.6-1,2.7-0.9
		c1,0.1,1.7,0.8,2.3,1.5c1.2,1.4,2.5,2.5,4.3,3c1.7,0.5,3.4,0.4,4.9-0.4c1.1-0.6,1.8-1.5,1.8-2.8c0-0.9-0.4-1.6-1.2-2.2
		c-1.2-0.9-2.6-1.2-4-1.6c-2-0.5-4-0.9-6-1.7c-1.6-0.6-3.1-1.5-4.1-2.9c-0.8-1.1-1.1-2.3-1.1-3.5c0-1.6,0.4-3.2,1.5-4.6
		c1.9-2.5,4.5-3.5,7.5-3.8c2.7-0.3,5.4,0,7.9,1.1c0.7,0.3,1.3,0.7,2,1.1c0.5,0.5,1.1,0.8,1.5,1.4c0.8,1,1.3,2,1,3.3
		c-0.5,1.7-2.4,2.4-3.8,1.3c-0.4-0.3-0.7-0.7-1.1-1c-2.1-2.3-4.7-3.1-7.8-2.3c-0.9,0.2-1.6,0.8-2.1,1.6c-0.6,1-0.5,1.8,0.4,2.6
		c0.8,0.7,1.8,1.1,2.8,1.4c1.8,0.6,3.6,0.8,5.4,1.3c2.3,0.7,4.5,1.6,6.2,3.4c0.8,0.9,1.5,1.9,1.7,3C36.1,30.1,35.6,31.8,34.6,33.4z"
		/>
	<path class="st1" d="M13.7,22c-0.8-1.1-1.1-2.3-1-3.5c0-1.6,0.4-3.2,1.5-4.6c1.9-2.5,4.5-3.5,7.5-3.8c2.7-0.3,5.4,0,7.9,1.1
		c0.7,0.3,1.3,0.7,2,1.1c0.5,0.5,1.1,0.8,1.5,1.4c0.8,1,1.3,2,1,3.3c-0.5,1.7-2.4,2.4-3.8,1.3c-0.4-0.3-0.7-0.7-1.1-1
		c-2.1-2.3-4.7-3.1-7.8-2.3c-0.9,0.2-1.6,0.8-2.1,1.6c-0.6,1-0.5,1.8,0.4,2.6c0.8,0.7,1.8,1.1,2.8,1.4c1.8,0.6,3.6,0.8,5.4,1.3
		c2.3,0.7,4.5,1.6,6.2,3.4c0.8,0.9,1.5,1.9,1.7,3c0.3,1.8-0.1,3.6-1.2,5.2c-1.8,2.7-4.4,4.3-7.6,4.8c-4,0.6-7.8,0-11.3-2.2
		c-1.4-0.9-2.6-1.9-3.1-3.6c-0.3-0.9-0.2-1.8,0.4-2.5c0.7-0.8,1.6-1,2.7-0.9c1,0.1,1.7,0.8,2.3,1.5c1.1,1.4,2.5,2.5,4.3,3
		c1.7,0.5,3.4,0.4,4.9-0.4c1.1-0.6,1.8-1.5,1.8-2.8c0-0.9-0.5-1.6-1.2-2.2c-1.2-0.9-2.6-1.2-4-1.6c-2-0.5-4-0.9-6-1.7
		C16.2,24.3,14.8,23.4,13.7,22z"/>
</g>
</svg>
