<?xml version="1.0" encoding="utf-8"?>
<!-- Generator: Adobe Illustrator 21.1.0, SVG Export Plug-In . SVG Version: 6.00 Build 0)  -->
<svg version="1.1" id="圖層_1" xmlns="http://www.w3.org/2000/svg" xmlns:xlink="http://www.w3.org/1999/xlink" x="0px" y="0px"
	 viewBox="0 0 59 45" style="enable-background:new 0 0 59 45;" xml:space="preserve">
<style type="text/css">
	.st0{fill:#FFCB72;}
</style>
<path id="形狀_7" class="st0" d="M0,13.1c0.2-0.8,0.3-1.7,0.5-2.5C2.1,5.2,5.7,1.7,11.1,0.4c5.5-1.3,10.3,0.4,14.1,4.5
	c0.1,0.1,0.2,0.2,0.3,0.3c0,0,0.1,0,0.1,0c2.5-3,6.1-4.9,10.1-5.2c2.8-0.2,5.6,0.4,8,1.7c4.5,2.5,8,8.1,7.4,12.3
	c-2.8-0.1-5.6,0.8-7.8,2.5c-1.1-0.6-2.3-1.2-3.5-1.7c-6.1-2.3-12.9,0.8-15.2,7c-0.3,0.9-0.6,1.9-0.7,2.9c-0.4,3.5,0.8,7,3.3,9.4
	c1.4,1.5,3,2.9,4.5,4.4c0.1,0.1,0.3,0.2,0.5,0.4L25.6,45c-0.9-0.8-1.7-1.6-2.6-2.4C16.9,36.7,10.8,30.8,4.7,25
	c-2.6-2.4-4.2-5.6-4.6-9.1c0-0.1-0.1-0.2-0.1-0.3V13.1z M43.1,44.7c-3-2.9-5.9-5.7-8.9-8.5c-1.6-1.5-3.1-3-4.6-4.6
	c-2.3-2.4-3-6-1.6-9.1c1.4-3.1,4.4-5,7.8-5c2.8,0,5.4,1.5,7,3.8c0.1,0.2,0.2,0.3,0.3,0.5c0.1-0.2,0.2-0.3,0.3-0.4
	c2.5-3.9,7.7-5.1,11.6-2.6c2.6,1.6,4.1,4.6,3.9,7.6c-0.1,1.9-0.9,3.8-2.2,5.1c-4.5,4.4-9,8.7-13.5,13C43.2,44.6,43.2,44.6,43.1,44.7
	L43.1,44.7z"/>
</svg>
