<?xml version="1.0" encoding="utf-8"?>
<!-- Generator: Adobe Illustrator 21.1.0, SVG Export Plug-In . SVG Version: 6.00 Build 0)  -->
<svg version="1.1" id="圖層_1" xmlns="http://www.w3.org/2000/svg" xmlns:xlink="http://www.w3.org/1999/xlink" x="0px" y="0px"
	 viewBox="0 0 45 45" style="enable-background:new 0 0 45 45;" xml:space="preserve">
<style type="text/css">
	.st0{fill:#FFCB72;}
</style>
<path id="形狀_5" class="st0" d="M11.2,11.2c0-3,0-5.8,0-8.7c0-0.4,0.1-0.8,0.2-1.1C11.7,0.6,12.5,0,13.4,0c0.1,0,0.2,0,0.3,0
	c9.6,0,19.3,0,28.9,0c1.1-0.1,2.1,0.6,2.3,1.6C45,2,45,2.3,45,2.6c0,6.2,0,12.4,0,18.7c0,3.3,0,6.6,0,9.9c0.2,1.3-0.7,2.4-2,2.6
	c-0.2,0-0.4,0-0.6,0c-2.6,0-5.3,0-7.9,0h-0.7v0.6c0,2.7,0,5.3,0,8c0.2,1.3-0.7,2.4-2,2.6c-0.2,0-0.4,0-0.6,0c-9.5,0-19.1,0-28.6,0
	c-1.2,0.2-2.4-0.7-2.6-1.9c0-0.2,0-0.4,0-0.6c0-9.5,0-19.1,0-28.6c-0.2-1.3,0.7-2.4,2-2.6c0.2,0,0.4,0,0.6,0c2.7,0,5.3,0,8,0
	L11.2,11.2L11.2,11.2z M33.8,29.2h6.7V4.5H15.8v6.7h15.3c1.8,0,2.7,0.9,2.7,2.7c0,4.9,0,9.8,0,14.7L33.8,29.2L33.8,29.2z M6.7,28
	l7.8,7.8c4.2-4.2,8.4-8.4,12.6-12.6L24,20.1l-9.5,9.5l-4.7-4.7L6.7,28z"/>
</svg>
