<svg xmlns="http://www.w3.org/2000/svg" width="44" height="40" viewBox="0 0 44 40">
  <defs>
    <style>
      .cls-1 {
        fill: #fff;
        fill-rule: evenodd;
      }
    </style>
  </defs>
  <path id="形狀_3_拷貝" data-name="形狀 3 拷貝" class="cls-1" d="M530.967,485.993a3.254,3.254,0,0,1-1.387-.36,49.927,49.927,0,0,1-7.242-4L521.375,481c-1-.72-2-1.44-2.927-2.24a27.622,27.622,0,0,1-2.658-2.6l-0.54-.56a24.683,24.683,0,0,1-5.624-10.157A10.371,10.371,0,0,1,509.01,462v-2.559a9.641,9.641,0,0,1,.27-2.12,13.862,13.862,0,0,1,6.7-9.717,11.222,11.222,0,0,1,6.125-1.6h0a13.383,13.383,0,0,1,8.9,3.479l0.809-.68a12.786,12.786,0,0,1,15.716-.08,14.418,14.418,0,0,1,4.777,6.878,16.28,16.28,0,0,1,.655,5.878v1.88a13.18,13.18,0,0,1-.231,1.479,26.578,26.578,0,0,1-3.159,7.238,32.04,32.04,0,0,1-6.163,6.718,45.449,45.449,0,0,1-7.435,5.039l-2.311,1.2-1.31.719A3.382,3.382,0,0,1,530.967,485.993Zm-0.308-4h0Z" transform="translate(-509 -446)"/>
</svg>
