<svg xmlns="http://www.w3.org/2000/svg" width="35" height="45" viewBox="0 0 35 45">
  <defs>
    <style>
      .cls-1 {
        fill: #ffffff;
        fill-rule: evenodd;
      }
    </style>
  </defs>
  <path id="形狀_6" data-name="形狀 6" class="cls-1" d="M493.849,231.806c-3.725,1.172-6.349,3.384-7.348,7.306l-2.328-.667a15.888,15.888,0,0,0-1.684,5.629,8.264,8.264,0,0,0,.929,4.771,8.017,8.017,0,0,0,5.424,4.076,0.114,0.114,0,0,1,.1.079,16.9,16.9,0,0,1-13.38-8.41c-3.5-5.926-3.307-11.968-.037-18.048,0.333,0.5.59,0.933,0.9,1.33a5.062,5.062,0,0,0,3.248,2.165,3.729,3.729,0,0,0,4.2-3.009,4.37,4.37,0,0,0-.687-2.463,6.37,6.37,0,0,1,2.782-8.633c2.656-1.288,3.884-3.549,4.38-6.32,0.092-.518.129-1.047,0.2-1.612a3.212,3.212,0,0,1,.3.177,11.5,11.5,0,0,1,4.2,5.036,5.784,5.784,0,0,1-.01,4.383,11.448,11.448,0,0,0-1.006,3.945,7.269,7.269,0,0,0,.195,2.089,3.094,3.094,0,0,0,4.743,1.808,6.693,6.693,0,0,0,2.314-2.773c0.093-.181.18-0.365,0.272-0.552a17.4,17.4,0,0,1-9.455,30.857,8.534,8.534,0,0,0,3.446-1.623,8,8,0,0,0,2.228-9.8,25.693,25.693,0,0,0-1.739-2.649,11.564,11.564,0,0,1-2.068-6.179c-0.007-.117-0.016-0.235-0.03-0.351C493.908,232.191,493.88,232.018,493.849,231.806Zm-8.152,9.841L489,242.6c0-.682-0.018-1.307,0-1.93a6.186,6.186,0,0,1,2.267-4.6c0.131-.113.273-0.213,0.463-0.36a15.742,15.742,0,0,0,3.282,6.363,5.373,5.373,0,0,1-1.089,7.159,5.42,5.42,0,0,1-8.805-3.8A9.016,9.016,0,0,1,485.7,241.647Z" transform="translate(-473 -208)"/>
</svg>
