<?xml version="1.0" encoding="utf-8"?>
<!-- Generator: Adobe Illustrator 21.1.0, SVG Export Plug-In . SVG Version: 6.00 Build 0)  -->
<svg version="1.1" id="圖層_1" xmlns="http://www.w3.org/2000/svg" xmlns:xlink="http://www.w3.org/1999/xlink" x="0px" y="0px"
	 viewBox="0 0 35 45" style="enable-background:new 0 0 35 45;" xml:space="preserve">
<style type="text/css">
	.st0{fill:#FFCB72;}
</style>
<path id="形狀_6" class="st0" d="M20.8,23.8c-3.7,1.2-6.3,3.4-7.3,7.3l-2.3-0.7c-0.9,1.8-1.5,3.7-1.7,5.6
	c-0.2,1.6,0.1,3.3,0.9,4.8c1.1,2.1,3.1,3.6,5.4,4.1c0,0,0.1,0,0.1,0.1c-5.6-0.4-10.6-3.6-13.4-8.4c-3.5-5.9-3.3-12,0-18
	c0.3,0.5,0.6,0.9,0.9,1.3C4.2,21,5.3,21.8,6.7,22c2,0.3,3.8-1,4.2-3c0-0.9-0.2-1.7-0.7-2.5c-1.6-3.1-0.4-7,2.7-8.6c0,0,0.1,0,0.1,0
	c2.7-1.3,3.9-3.5,4.4-6.3c0.1-0.5,0.1-1,0.2-1.6c0.1,0.1,0.2,0.1,0.3,0.2c1.9,1.2,3.3,3,4.2,5c0.6,1.4,0.6,3,0,4.4
	c-0.6,1.2-0.9,2.6-1,3.9c0,0.7,0,1.4,0.2,2.1c0.4,1.7,2.1,2.7,3.8,2.3c0.4-0.1,0.7-0.2,1-0.4c1-0.7,1.8-1.7,2.3-2.8
	c0.1-0.2,0.2-0.4,0.3-0.6c7.5,6,8.6,17,2.6,24.5c-3,3.7-7.3,6-12,6.4c1.3-0.3,2.4-0.8,3.4-1.6c3-2.3,3.9-6.4,2.2-9.8
	c-0.5-0.9-1.1-1.8-1.7-2.6c-1.3-1.8-2-4-2.1-6.2c0-0.1,0-0.2,0-0.4C20.9,24.2,20.9,24,20.8,23.8z M12.7,33.6l3.3,1
	c0-0.7,0-1.3,0-1.9c0.1-1.8,0.9-3.5,2.3-4.6c0.1-0.1,0.3-0.2,0.5-0.4c0.6,2.3,1.7,4.5,3.3,6.4c1.5,2.3,1.1,5.4-1.1,7.2
	c-2.3,1.9-5.7,1.5-7.6-0.8c-0.7-0.9-1.1-1.9-1.2-3C12,36.1,12.2,34.9,12.7,33.6L12.7,33.6z"/>
</svg>
