<svg xmlns="http://www.w3.org/2000/svg" width="59" height="45" viewBox="0 0 59 45">
  <defs>
    <style>
      .cls-1 {
        fill: #ffffff;
        fill-rule: evenodd;
      }
    </style>
  </defs>
  <path id="形狀_7" data-name="形狀 7" class="cls-1" d="M860,223.1c0.168-.841.269-1.7,0.517-2.518,1.63-5.356,5.154-8.884,10.624-10.155,5.52-1.283,10.266.361,14.123,4.507,0.091,0.1.181,0.2,0.273,0.293a0.409,0.409,0,0,0,.1.043,14.386,14.386,0,0,1,10.054-5.206,14.007,14.007,0,0,1,7.99,1.7c4.526,2.456,7.958,8.094,7.443,12.266a12.047,12.047,0,0,0-7.822,2.508,35.961,35.961,0,0,0-3.468-1.745,11.831,11.831,0,0,0-15.88,9.832,11.42,11.42,0,0,0,3.27,9.431c1.445,1.5,2.963,2.942,4.452,4.407,0.134,0.133.293,0.242,0.512,0.42L885.619,255c-0.872-.822-1.726-1.616-2.567-2.422q-9.191-8.811-18.378-17.625a14.406,14.406,0,0,1-4.584-9.065,1.309,1.309,0,0,0-.09-0.269V223.1Zm43.125,31.565c-2.972-2.853-5.935-5.684-8.882-8.53-1.557-1.5-3.119-3-4.622-4.558a8.27,8.27,0,0,1-1.576-9.1,8.393,8.393,0,0,1,7.821-4.986,8.292,8.292,0,0,1,6.953,3.847c0.105,0.157.205,0.317,0.343,0.529,0.12-.177.215-0.311,0.3-0.449a8.416,8.416,0,0,1,15.523,4.988,7.691,7.691,0,0,1-2.249,5.144c-4.456,4.372-8.964,8.692-13.453,13.031A1.026,1.026,0,0,1,903.125,254.661Z" transform="translate(-860 -210)"/>
</svg>
