<svg xmlns="http://www.w3.org/2000/svg" width="44" height="39" viewBox="0 0 44 39">
  <defs>
    <style>
      .cls-1 {
        fill: #fff;
        fill-rule: evenodd;
      }
    </style>
  </defs>
  <path id="形狀_3_拷貝_2" data-name="形狀 3 拷貝 2" class="cls-1" d="M1096.97,485.994a3.347,3.347,0,0,1-1.39-.351,50.272,50.272,0,0,1-7.24-3.9l-0.96-.624c-1.01-.7-2.01-1.4-2.93-2.184a27.55,27.55,0,0,1-2.66-2.534l-0.54-.546a23.847,23.847,0,0,1-5.62-9.9,9.842,9.842,0,0,1-.62-3.353v-2.5a8.99,8.99,0,0,1,.27-2.066,13.534,13.534,0,0,1,6.7-9.475,11.468,11.468,0,0,1,6.13-1.56h0a13.587,13.587,0,0,1,8.9,3.393l0.8-.663a13.052,13.052,0,0,1,15.72-.078,14.052,14.052,0,0,1,4.78,6.706,15.434,15.434,0,0,1,.65,5.731v1.833a11.727,11.727,0,0,1-.23,1.442,25.35,25.35,0,0,1-3.16,7.057,31.5,31.5,0,0,1-6.16,6.55,44.965,44.965,0,0,1-7.44,4.913l-2.31,1.17-1.31.7A3.449,3.449,0,0,1,1096.97,485.994Zm-0.31-3.9h0Zm-8.59-31.192a8.158,8.158,0,0,0-4.16,1.053,9.688,9.688,0,0,0-4.86,6.745,5.57,5.57,0,0,0-.19,1.521V462.6a6.8,6.8,0,0,0,.35,2.145,20.3,20.3,0,0,0,4.81,8.343l0.54,0.546q1.11,1.19,2.31,2.261c0.85,0.7,1.74,1.326,2.66,1.95l0.89,0.624a45.158,45.158,0,0,0,6.55,3.626l1.15-.507,2.2-1.17a35.406,35.406,0,0,0,6.62-4.484,25.685,25.685,0,0,0,5.28-5.536,20.692,20.692,0,0,0,2.62-5.927,3.66,3.66,0,0,0,0-.662v-1.677a11.942,11.942,0,0,0-.42-4.289,10.355,10.355,0,0,0-3.35-4.912,9.206,9.206,0,0,0-11.18,0l-0.77.624-0.61.545a2.633,2.633,0,0,1-3.62,0l-0.39-.35a9.811,9.811,0,0,0-6.39-2.847h-0.04Z" transform="translate(-1075 -447)"/>
</svg>
