<svg xmlns="http://www.w3.org/2000/svg" width="45" height="45" viewBox="0 0 45 45">
  <defs>
    <style>
      .cls-1 {
        fill: #fff;
        fill-rule: evenodd;
      }
    </style>
  </defs>
  <path id="形狀_5" data-name="形狀 5" class="cls-1" d="M143.236,221.237c0-2.961-.006-5.826.008-8.692a3.253,3.253,0,0,1,.18-1.133,2.1,2.1,0,0,1,1.928-1.4c0.1-.008.211-0.009,0.317-0.009q14.452,0,28.907,0a2.218,2.218,0,0,1,2.341,1.649,4.064,4.064,0,0,1,.078.994q0.007,9.336,0,18.673,0,4.932,0,9.864a2.3,2.3,0,0,1-2.607,2.58q-3.957,0-7.913,0h-0.716V244.4q0,4.008,0,8.017A2.3,2.3,0,0,1,163.2,255q-14.322,0-28.643,0a2.275,2.275,0,0,1-2.56-2.565q0-14.32.007-28.642a2.3,2.3,0,0,1,2.586-2.553q3.982,0,7.965,0h0.678Zm22.526,17.982h6.714v-24.7H147.788v6.718h15.279c1.819,0,2.694.868,2.695,2.672q0,7.331,0,14.66v0.65Zm-27.016-1.2,7.841,7.846c4.208-4.207,8.437-8.436,12.591-12.588l-3.161-3.16-9.531,9.544-4.664-4.717Z" transform="translate(-132 -210)"/>
</svg>
