<svg id="圖層_1" data-name="圖層 1" xmlns="http://www.w3.org/2000/svg" viewBox="0 0 250 250"><defs><style>.cls-1{fill:#fff;}</style></defs><title>未命名-1</title><path class="cls-1" d="M130,14.25c4.56,1,9.24,1.61,13.65,3.05,25.46,8.31,42.41,33.46,40.33,59.51-2.24,27.92-22.2,49.91-49.42,54.29a59.13,59.13,0,0,1-9.67.78C80.52,131.79,41,163.93,32,207.46c-1.23,5.94,3,11,9.26,11q33.53,0,67.05,0h18.39c5.24,0,8.77,2.64,9.63,7.17.81,4.31-1.63,8-6.45,9.89a1.56,1.56,0,0,0-.35.24H37.42a9.78,9.78,0,0,0-1.19-.4c-14.63-2.6-24.46-16.75-21.15-31.25Q27.67,149,78.76,124.66c3.55-1.69,7.28-3,11.06-4.53-.44-.39-.74-.69-1.07-1C72.31,105.48,64.43,88,66.93,66.67c2.81-24,16.2-40.3,38.7-48.91,4.71-1.8,9.89-2.37,14.86-3.51ZM166.77,73.1a41.53,41.53,0,0,0-83.05,0c0,23.22,18.66,41.53,42.37,41.54C148.14,114.61,166.76,95.62,166.77,73.1Z"/><path class="cls-1" d="M235.56,195.94c-2.56,4.23-6.39,5.31-11.16,5.26-20.17-.16-40.35-.06-60.52-.08a14.79,14.79,0,0,1-3.64-.35,8.6,8.6,0,0,1,1.92-16.92c4.18-.09,8.36,0,12.54,0,16.57,0,33.14.11,49.72-.08,4.77-.05,8.61,1,11.14,5.27Z"/><path class="cls-1" d="M235.56,161.34c-2.55,4.24-6.38,5.3-11.15,5.26-20.46-.17-40.93-.06-61.39-.08-6.5,0-10.77-5.67-8.73-11.5,1.26-3.62,4.49-5.78,8.73-5.79h48.42c4.32,0,8.66.2,13-.06,4.78-.29,8.61,1,11.15,5.25Z"/><path class="cls-1" d="M160.72,235.74l-1.38-.57a8.72,8.72,0,0,1-5.43-9.54,8.6,8.6,0,0,1,8.51-7.17c7.56-.05,15.12,0,22.68,0,13.1,0,26.21.14,39.32-.07,4.77-.08,8.6,1,11.13,5.27v6.92a11.93,11.93,0,0,1-6.49,5.19Z"/></svg>