<?xml version="1.0" encoding="utf-8"?>
<!-- Generator: Adobe Illustrator 21.1.0, SVG Export Plug-In . SVG Version: 6.00 Build 0)  -->
<svg version="1.1" id="圖層_1" xmlns="http://www.w3.org/2000/svg" xmlns:xlink="http://www.w3.org/1999/xlink" x="0px" y="0px"
	 viewBox="0 0 250 250" style="enable-background:new 0 0 250 250;" xml:space="preserve">
<style type="text/css">
	.st0{fill:#B8151B;}
</style>
<path class="st0" d="M130,14.3c4.6,1,9.2,1.6,13.6,3c25.5,8.3,42.4,33.5,40.3,59.5c-2.2,27.9-22.2,49.9-49.4,54.3
	c-3.2,0.5-6.4,0.8-9.7,0.8c-44.4-0.1-83.9,32-92.9,75.6c-1.2,5.9,3,11,9.3,11c22.4,0,44.7,0,67.1,0h18.4c5.2,0,8.8,2.6,9.6,7.2
	c0.8,4.3-1.6,8-6.4,9.9c-0.1,0.1-0.2,0.1-0.4,0.2H37.4c-0.4-0.2-0.8-0.3-1.2-0.4c-14.6-2.6-24.5-16.8-21.1-31.3
	c8.4-36.7,29.6-63.2,63.7-79.5c3.6-1.7,7.3-3,11.1-4.5c-0.4-0.4-0.7-0.7-1.1-1C72.3,105.5,64.4,88,66.9,66.7
	c2.8-24,16.2-40.3,38.7-48.9c4.7-1.8,9.9-2.4,14.9-3.5L130,14.3z M166.8,73.1c-0.4-22.9-19.2-41.2-42.2-40.9
	c-22.4,0.3-40.5,18.4-40.9,40.9c0,23.2,18.7,41.5,42.4,41.5C148.1,114.6,166.8,95.6,166.8,73.1z"/>
<path class="st0" d="M235.6,195.9c-2.6,4.2-6.4,5.3-11.2,5.3c-20.2-0.2-40.4-0.1-60.5-0.1c-1.2,0-2.4-0.1-3.6-0.4
	c-4.6-1.2-7.4-5.9-6.2-10.5c1-3.7,4.3-6.3,8.1-6.4c4.2-0.1,8.4,0,12.5,0c16.6,0,33.1,0.1,49.7-0.1c4.8-0.1,8.6,1,11.1,5.3
	L235.6,195.9z"/>
<path class="st0" d="M235.6,161.3c-2.6,4.2-6.4,5.3-11.1,5.3c-20.5-0.2-40.9-0.1-61.4-0.1c-6.5,0-10.8-5.7-8.7-11.5
	c1.3-3.6,4.5-5.8,8.7-5.8h48.4c4.3,0,8.7,0.2,13-0.1c4.8-0.3,8.6,1,11.1,5.3L235.6,161.3z"/>
<path class="st0" d="M160.7,235.7l-1.4-0.6c-3.8-1.5-6.1-5.5-5.4-9.5c0.7-4.2,4.3-7.2,8.5-7.2c7.6-0.1,15.1,0,22.7,0
	c13.1,0,26.2,0.1,39.3-0.1c4.8-0.1,8.6,1,11.1,5.3v6.9c-1.5,2.5-3.8,4.3-6.5,5.2L160.7,235.7z"/>
</svg>
