<svg xmlns="http://www.w3.org/2000/svg" width="74.969" height="75" viewBox="0 0 74.969 75">
  <defs>
    <style>
      .cls-1 {
        fill: #fff;
        fill-rule: evenodd;
      }
    </style>
  </defs>
  <path id="形狀_10" data-name="形狀 10" class="cls-1" d="M123.392,4875.99h32.492q0,8.2,0,16.41c0,1.81.826,2.64,2.642,2.64H175v0.82q0,24.06,0,48.12a6.616,6.616,0,0,1-7.043,7.01H133.837a24.493,24.493,0,0,0,10.207-17.57h2.922c5.1,0,10.192-.01,15.288,0a2.245,2.245,0,0,0,2.254-1.33,2.2,2.2,0,0,0-2.2-3.07H144.013a24.918,24.918,0,0,0-2.521-8.79h20.85a2.2,2.2,0,1,0-.049-4.39q-11.355-.015-22.712.01a2.056,2.056,0,0,1-1.683-.74,23.569,23.569,0,0,0-15.809-7.92c-1.447-.13-2.914-0.02-4.382-0.02-0.025-.2-0.046-0.3-0.046-0.39,0-8.13-.019-16.26.017-24.39a5.846,5.846,0,0,1,2.552-4.96A19.561,19.561,0,0,1,123.392,4875.99Zm23.019,26.66q-8.079,0-16.158.01a2.19,2.19,0,0,0-.566,4.33,4.976,4.976,0,0,0,.949.06h31.729a2.2,2.2,0,1,0-.016-4.39Q154.381,4902.645,146.411,4902.65Zm13.94-25.08c4.344,4.33,8.725,8.69,13.083,13.04H160.351v-13.04Zm-40.5,33.87a19.775,19.775,0,1,0,19.856,19.8A19.851,19.851,0,0,0,119.855,4911.44Zm2.955,28.13c-0.391.1-.8,0.13-1.234,0.2v0.78a1.71,1.71,0,1,1-3.42,0v-0.77a6.308,6.308,0,0,1-4.379-2.47,1.717,1.717,0,0,1,1.445-2.66,1.749,1.749,0,0,1,1.5.87,1.83,1.83,0,0,0,1.859.8c0.961,0,1.922.01,2.883,0a1.7,1.7,0,1,0,.011-3.4,37.3,37.3,0,0,1-4.1-.1,5.014,5.014,0,0,1-4.342-5.32,5.144,5.144,0,0,1,4.794-4.79,2.22,2.22,0,0,0,.315-0.03v-0.81a1.7,1.7,0,0,1,3.4,0v0.81a5.221,5.221,0,0,1,4.183,2.16c0.069,0.1.134,0.2,0.2,0.3A1.732,1.732,0,0,1,123,4927a1.731,1.731,0,0,0-.489-0.55,3.135,3.135,0,0,0-1.513-.33c-0.923-.05-1.85-0.02-2.775-0.01a1.7,1.7,0,1,0-.011,3.4c1.138,0.01,2.278-.01,3.416.01A5.1,5.1,0,0,1,122.81,4939.57Z" transform="translate(-100.031 -4876)"/>
</svg>
