<?xml version="1.0" encoding="utf-8"?>
<!-- Generator: Adobe Illustrator 21.1.0, SVG Export Plug-In . SVG Version: 6.00 Build 0)  -->
<svg version="1.1" id="圖層_1" xmlns="http://www.w3.org/2000/svg" xmlns:xlink="http://www.w3.org/1999/xlink" x="0px" y="0px"
	 viewBox="0 0 250 250" style="enable-background:new 0 0 250 250;" xml:space="preserve">
<style type="text/css">
	.st0{fill:#B8151B;}
</style>
<path class="st0" d="M15,187.7V54.1c0.1-0.6,0.3-1.2,0.4-1.8c2.7-20.7,21.1-37.2,42.1-37.2c44.9-0.1,89.8-0.1,134.7,0
	c17.7,0.1,33.5,11,39.9,27.5c3.3,8.3,3.1,17,2.7,25.6c-0.2,4.5-4.5,7.6-9,7.4c-4.4-0.3-7.9-3.9-8-8.3c-0.1-2.8,0-5.6,0-8.4
	c0-15.4-11.3-26.6-26.7-26.7h-67.9c-21.6,0-43.3-0.1-64.9,0c-18.8,0.1-31.5,19-23.9,36.1C39,78.8,47.6,83.8,59,83.8
	c44.3,0,88.7,0,133,0c23.6-0.1,42.9,19,43,42.7c0.1,22,0.1,44,0,65.9c-0.1,19.1-12.9,35.9-31.4,41c-2.4,0.7-4.9,1.1-7.3,1.6H61.8
	c-0.4-0.2-0.8-0.3-1.2-0.4c-20.8-2.4-38.1-17.2-43.7-37.5C16,194.1,15.6,190.9,15,187.7z M32.2,92.4V95c0,29.2,0,58.4,0,87.6
	c0,20.2,15.1,35.2,35.3,35.2H191c15.6,0,26.8-11.2,26.8-26.8c0-21,0-42.1,0-63.2c0-15.7-11.2-26.9-26.9-26.9c-43,0-86-0.1-129.1,0.1
	C51.1,101.1,41.3,99.1,32.2,92.4z"/>
<path class="st0" d="M125,66.6H58.9c-4.5,0-7.5-1.9-8.9-5.4c-1.8-4.4,0.3-9.4,4.7-11.1c0.8-0.3,1.7-0.5,2.6-0.6c0.4,0,0.9,0,1.3,0
	h132.9c4.7-0.5,9,2.9,9.5,7.6s-2.9,9-7.6,9.5c-0.4,0-0.9,0.1-1.3,0c-10,0.1-20,0-30.1,0L125,66.6z"/>
<path class="st0" d="M200.6,159.4c0,5.9-4.7,10.6-10.6,10.7c-5.9,0.2-10.9-4.5-11.1-10.4s4.5-10.9,10.4-11.1c0.2,0,0.4,0,0.7,0
	C195.9,148.8,200.5,153.5,200.6,159.4z"/>
</svg>
