<svg xmlns="http://www.w3.org/2000/svg" width="74.969" height="75" viewBox="0 0 74.969 75">
  <defs>
    <style>
      .cls-1 {
        fill: #fff;
        fill-rule: evenodd;
      }
    </style>
  </defs>
  <path id="形狀_9" data-name="形狀 9" class="cls-1" d="M124.391,5060.99h32.492q0,8.2,0,16.41c0,1.81.826,2.64,2.642,2.64H176v0.82q0,24.06,0,48.12c0,4.23-2.8,7.01-7.042,7.02H134.836a24.512,24.512,0,0,0,10.206-17.58h2.923c5.095,0,10.192-.01,15.288,0a2.251,2.251,0,0,0,2.254-1.32,2.2,2.2,0,0,0-2.2-3.08H145.012a24.918,24.918,0,0,0-2.521-8.79h20.85a2.2,2.2,0,1,0-.049-4.39c-7.571,0-15.142-.01-22.712.01a2.027,2.027,0,0,1-1.683-.74,23.571,23.571,0,0,0-15.809-7.92c-1.447-.13-2.914-0.02-4.383-0.02-0.024-.2-0.045-0.3-0.045-0.39,0-8.13-.019-16.26.017-24.39a5.816,5.816,0,0,1,2.552-4.95A18.773,18.773,0,0,1,124.391,5060.99Zm23.019,26.67c-5.386,0-10.773-.01-16.159,0a2.19,2.19,0,0,0-.565,4.33,4.272,4.272,0,0,0,.948.06h31.73a2.2,2.2,0,1,0-.016-4.39C158.035,5087.65,152.723,5087.66,147.41,5087.66Zm-26.556,8.78a19.775,19.775,0,1,1-19.838,19.75A19.853,19.853,0,0,1,120.854,5096.44Zm2.214,17.58c0-2.2.008-4.32,0-6.44a2.206,2.206,0,1,0-4.4-.02q-0.016,4.26,0,8.5a2.2,2.2,0,0,0,2.33,2.35c1.862,0.02,3.723.01,5.585,0a2.2,2.2,0,1,0-.024-4.39h-3.483Zm38.282-51.45c4.344,4.33,8.725,8.7,13.083,13.04H161.35v-13.04Z" transform="translate(-101.031 -5061)"/>
</svg>
