<svg id="圖層_1" data-name="圖層 1" xmlns="http://www.w3.org/2000/svg" viewBox="0 0 250 250"><defs><style>.cls-1{fill:#fff;}</style></defs><title>未命名-1</title><path class="cls-1" d="M15,187.74V54.12c.14-.62.34-1.23.42-1.85,2.67-20.7,21.15-37.15,42.14-37.19q67.35-.15,134.69,0A43,43,0,0,1,232.1,42.61c3.27,8.33,3.15,17,2.69,25.62-.24,4.52-4.53,7.64-9,7.36a8.52,8.52,0,0,1-8-8.35c-.08-2.79,0-5.59,0-8.38,0-15.44-11.26-26.65-26.73-26.66H123.15c-21.62,0-43.25-.07-64.87,0-18.85.11-31.45,19-23.89,36.06C39,78.76,47.57,83.76,59,83.77q66.48,0,133,0a42.9,42.9,0,0,1,43,42.65q.19,33,0,65.94a42.81,42.81,0,0,1-31.35,41c-2.39.67-4.85,1.11-7.27,1.65H61.8a6.79,6.79,0,0,0-1.19-.37,51.58,51.58,0,0,1-43.74-37.47C16,194.08,15.6,190.88,15,187.74ZM32.16,92.4V95q0,43.81,0,87.63c0,20.21,15.08,35.23,35.33,35.23H191c15.57,0,26.75-11.22,26.76-26.83q0-31.57,0-63.15c0-15.72-11.19-26.86-26.95-26.86-43,0-86-.09-129.07.06C51.11,101.07,41.29,99.06,32.16,92.4Z"/><path class="cls-1" d="M125,66.59H58.87c-4.51,0-7.55-1.88-8.89-5.41A8.54,8.54,0,0,1,57.3,49.45a11.05,11.05,0,0,1,1.29,0H191.48A8.59,8.59,0,1,1,192,66.57c-10,.08-20,0-30.06,0Z"/><path class="cls-1" d="M200.57,159.39A10.77,10.77,0,0,1,190,170.12a10.74,10.74,0,1,1,0-21.47A10.79,10.79,0,0,1,200.57,159.39Z"/></svg>